<?xml version="1.0" encoding="UTF-8"?>
<svg version="1.1" class="fill-foreground" viewBox="0 0 2048 819" width="1280" height="1280" xmlns="http://www.w3.org/2000/svg">
<path transform="translate(604,106)" d="m0 0h20l21 1 19 3 20 6 17 9 10 9 8 8 6 10 7 21 3 20 1 20 2 79 3 19 6 16 6 10 6 7 9 6 14 4 18 3 1 2 1 55 1 7-4 9-19 3-13 5-9 6-8 10-6 14-4 14-2 19-2 79-2 23-3 15-6 16-7 11-10 11-12 9-18 8-15 4-16 2-15 1h-34l-2-5v-66l1-1 33-3 13-4 6-4 5-8 2-6 1-8 1-45 2-39 3-24 6-23 8-17 8-11 9-10 15-11 2-2-13-10-10-9-7-8-8-13-7-19-4-18-2-17-2-40-1-37-1-18-4-11-5-6-8-4-8-2-25-1-9-1-1-3v-67l1-2z" fill="#3B3738"/>
<path transform="translate(532,219)" d="m0 0h36v71l-32 2-13 3-8 6-5 10-1 4-2 45-2 50-3 23-6 21-5 12-7 11-9 10-11 10-11 7-1 2 5 2 12 9 12 12 9 14 7 16 5 19 3 25 3 82 2 13 4 8 5 5 10 5 12 2 27 2v71h-39l-22-2-16-4-15-6-14-8-10-9-6-7-8-16-4-13-3-23-1-18-1-63-2-24-5-19-5-11-6-9-4-5-10-6-11-4-21-3v-72l20-3 14-5 11-8 7-10 5-11 4-15 2-19 2-26h30v-47h-30l1-19 3-21 4-13 7-14 7-9 10-10 11-7 11-5 17-5 15-2zm-71 36-1 1v35h36v-36z" fill="#ECB115"/>
<path transform="translate(1464,318)" d="m0 0h8l8 3 6 5 5 9 1 11-1 11-7 13-9 10-10 10-10 8 13 5 14 8 13 13 8 13 4 9 2 7v18l-5 12-7 10-9 9-11 6-11 4-10 2h-25l-13-3-9-4-8-4-9-7-12-11-10-10-7-9-13-16-10-16-5 6h-5l-3-3 1-7 3-2 5 1 1 3 13-8 21-11 18-8h4l-4-5-8-7-9-13-4-10-1-6v-10l4-13 7-9 10-6 3-1h13l10 5 9 10 4 8v2l3-3 7-11 9-9 9-6z" fill="#E7AF19"/>
<path transform="translate(1494,115)" d="m0 0h16l7 8 15 20 10 13 16 21 21 28v2l5-5 14-19 16-21 14-19 16-21 4-6 2-1h15l4 1v172l-18 1h-20v-91l-5 5-10 13-12 16-10 13-6 8-3 1-13-1-9-11-14-19-14-18-5-7-1 90-5 1h-32l-1-1v-172z" fill="#3A3637"/>
<path transform="translate(1070,119)" d="m0 0h80l18 4 12 5 10 6 10 8 7 7 7 10 8 16 4 18v22l-3 14-5 12-6 11-11 13-14 11-17 8-15 4-13 1h-71l-1-1zm38 35v100h31l15-3 12-6 10-9 7-12 3-10v-20l-4-12-6-10-5-5-7-6-12-5-13-2z" fill="#3A3637"/>
<path transform="translate(849,119)" d="m0 0h37l1 105 2 11 5 10 7 6 11 4h11l11-4 7-6 6-12 1-8 1-106h38v111l-4 17-8 16-7 9-9 8-12 7-17 5-16 1-14-2-12-4-12-7-11-10-7-10-6-13-4-20v-107z" fill="#3A3637"/>
<path transform="translate(1301,119)" d="m0 0h64l16 5 11 6 12 11 8 14 3 10v23l-4 12-5 9-11 12-10 6-9 4-7 2-11 1h-19v54l-6 1h-32l-1-2v-165zm38 35v45h13l14-3 8-6 4-11-1-9-4-8-9-6-11-2z" fill="#3B3738"/>
<path transform="translate(1460,319)" d="m0 0h2v2l-7 3-4 2-15 15-6 10v9l1 1 1 17 1 5v10h-2l-3 4-3 1 3 1-1 9-6 26-11 32-12 24-4 6-4-2-8-7-12-12-7-9-13-16-10-16-5 6h-5l-3-3 1-7 3-2 5 1 1 3 13-8 21-11 18-8h4l-4-5-8-7-9-13-4-10-1-6v-10l4-13 7-9 10-6 3-1h13l10 5 9 10 4 8v2l3-3 7-11 9-9 9-6z" fill="#E7B01E"/>
<path transform="translate(1455,399)" d="m0 0 6 1 16 8 8 6 10 10 8 13 4 9 2 7v18l-5 12-7 10-9 9-11 6-11 4-10 2h-25l-11-2v-2l7-4 7-10 11-22 8-24 1-7 1-1 1-7 1-1 1-7 1-1 3-16v-6l-7-3z" fill="#ECC91C"/>
<path transform="translate(437,142)" d="m0 0h52l14 1v66h-66z" fill="#ECB115"/>
<path transform="translate(1403,400)" d="m0 0 6 1-3 5-3 16-7 25-6 15-10 20h-3l-7-7-7-9-13-16-10-16-5 6h-5l-3-3 1-7 3-2 5 1 1 3 13-8 21-11 18-8h4v-3z" fill="#F1CD1E"/>
<path transform="translate(611,372)" d="m0 0 10 4 17 10 1 29 21 12 3 2v30l-4 4-16 9-4 2-1 29-11 7-4 1 3 11v13l-6 7-2 1h-8l-6-5-2-6 1-13 1-5-12-6-6-4-1 9-4 4-6 1 1 8v18l-3 6-4 3h-10l-4-6-1-3v-23l-10 1-5-6 1-7 1-3-6-2-1-9v-20l-9-6-2-1v16l-5 5h-7l-5-6v-10l2-10 1-32 4-4 18-10 3-2 5 1 11 6 9 5 7-1 10-6 8-5 1-28 9-6 14-8zm-1 3-22 12-1 27 5 4 18 10 6-1 18-11 1-1v-26l-6-5-11-6-5-3zm-76 43-15 9-7 4-1 32-2 10v10l5 4 5-2 1-1v-11l-2-10 16 8 4 1 13-8 9-6v-27l-23-13zm51 0-21 12-1 1v28l18 10 6 3 23-13v-28l-16-9-6-4zm50 0-22 13v28l22 12h4l21-12v-28l-17-10-6-3zm-75 43-21 12-1 1-1 27 4 3 3 1-1 4-1 7 3 3 12-1v26l3 6 1 1h6l5-5 2-8-2-18v-5h6l5-4v-8l2-2v-27l-23-13zm50 0-22 13-1 24 1 4 18 10 1 3-2 9v8l3 6 3 2h7l5-6v-11l-2-13 14-8v-27l-8-6-14-8z" fill="#5F5C5D"/>
<path transform="translate(1453,398)" d="m0 0 2 1v2l5 1 3 2-1 11-2 11-1 1-1 7-1 1-1 7-1 1-2 9-8 24-11 22-8 10-6 3-10-3-6-3 2-1 1-4 6-11 5-9 8-20 6-18 9-37 1-6z" fill="#F3CF1B"/>
<path transform="translate(349,209)" d="m0 0h47v46h-47z" fill="#ECB115"/>
<path transform="translate(1425,398)" d="m0 0 3 1-1 9-6 26-11 32-12 24-4 6-4-2-8-7-3-3 2-6 12-25 7-23 4-16 1-8 5-4h3v-2l2-1z" fill="#F3CF1B"/>
<path transform="translate(1455,399)" d="m0 0 6 1 16 8 3 3h-3l-3 17-5 18-3 12-7 20-6 12-3 7-6 10-2 2 14 4v1h-25l-11-2v-2l7-4 7-10 11-22 8-24 1-7 1-1 1-7 1-1 1-7 1-1 3-16v-6l-7-3z" fill="#4A1D03"/>
<path transform="translate(1430,391)" d="m0 0 1 2 10 2 3 2h7l4-1v2l-2 1h-11l-1 10-8 33-9 26-4 8-4 10-9 15-1 3-5-1-8-6 3-6 10-19 4-8 10-30 6-26 1-9h-12v-1l13-2z" fill="#4A1D03"/>
<path transform="translate(259,129)" d="m0 0h35v36h-35l-1-1v-34z" fill="#ECB215"/>
<path transform="translate(360,313)" d="m0 0h35l1 1v34l-35 1-1-1z" fill="#ECB216"/>
<path transform="translate(1053,567)" d="m0 0 4 1 9 11 7 9 5-5 12-16 5 1 1 41-1 1h-9l-1-1-1-18-9 11-4-1-8-9-1-2-1 20h-10v-41z" fill="#3C3839"/>
<path transform="translate(1313,567)" d="m0 0 4 1 10 12 6 8 5-5 12-16 5 1 1 41-1 1h-9l-1-1v-19l-10 12-4-1-8-9-1-2-1 20h-10v-41z" fill="#3C3839"/>
<path transform="translate(1403,400)" d="m0 0 6 1-3 5-3 16-7 25-6 15-10 20h-3l-7-7-2-4 3-1 2-6 5-11 8-24 5-22-4 2h-5l4-3 7-1v-3z" fill="#4A1D03"/>
<path transform="translate(611,372)" d="m0 0 10 4 17 10 1 29 21 12 3 2v12l-2 18h-1l-1-28-22-12-5 2-18 10-1 28-3-1v-27l-5-2-16-9-4-1-21 12-1 28-3-3v-25l-5-2-18-10-4 1-18 10-2 1-1 18-1 1-1 10h-1v-29l4-4 18-10 3-2 5 1 11 6 9 5 7-1 10-6 8-5 1-28 9-6 14-8zm-1 3-22 12-1 27 5 4 18 10 6-1 18-11 1-1v-26l-6-5-11-6-5-3z" fill="#F0C85C"/>
<path transform="translate(950,568)" d="m0 0h16l9 2 6 4 4 5 2 4v13l-6 9-6 4-3 1h-23l-1-1v-39zm9 9-1 1v22l1 1h9l6-3 3-5v-7l-3-5-5-3-3-1z" fill="#413D3E"/>
<path transform="translate(1548,568)" d="m0 0h15l10 2 7 5 5 10v8l-3 7-6 7-6 3h-24v-41zm9 9-1 1v22l1 1h9l5-3 3-4 1-6-4-8-8-3z" fill="#3D393A"/>
<path transform="translate(895,568)" d="m0 0h8l2 1 1 29 4 3 6-1 2-3 2-29h7l3 2v15l-1 13-4 8-6 4-3 1h-9l-7-4-5-8z" fill="#3E3A3B"/>
<path transform="translate(1454,568)" d="m0 0h10l6 11 2 1 2-6 4-6h9l1 2-10 18 2 5 8 15v2h-11l-6-11-3 3-4 8h-11l2-5 8-14-2-6-7-13z" fill="#3C3839"/>
<path transform="translate(1265,568)" d="m0 0h13l8 2 5 5 2 4v8l-4 6-4 3-10 1v12l-1 1h-9l-1-1v-39zm10 9-1 9 2 2 5-1 3-5-4-4z" fill="#494546"/>
<path transform="translate(1173,568)" d="m0 0h12l9 3 5 5 1 2v9l-4 6-5 3-9 2v11l-1 1h-9l-1-1v-39zm9 9-1 9 2 2 5-1 2-2v-5l-6-3z" fill="#3C3839"/>
<path transform="translate(1e3 568)" d="m0 0h13l8 2 6 6 1 3v7l-3 6-5 4-10 2v11l-1 1h-9l-1-1v-40zm10 9-1 1v9l5 1 5-5-4-5z" fill="#3D393A"/>
<path transform="translate(1369,414)" d="m0 0h5l-7 21-7 16-3 5-3-1-7-10-7-11-5 6h-5l-3-3 1-7 3-2 5 1 1 3 13-8z" fill="#4B1F06"/>
<path transform="translate(1215,568)" d="m0 0h32l1 1v8l-11 1-1 32h-9l-1-32-12-1v-8z" fill="#3A3637"/>
<path transform="translate(587,498)" d="m0 0 1 4 5 2 13 7 2 4-2 9v8l3 6 2 1h11l-4 4h-8l-6-5-2-6 1-13 1-5-12-6-6-4-1 9-4 4-6 1 1 8v18l-3 6-4 3h-10l-4-6-1-3v-23l-10 1-5-6 1-7 1-3-4-2 2-2 6 3-1 4-1 7 2 2 10-1 2 1 1 7v19l3 6h6l4-4 2-8-2-18v-5l4-1 5-1 2-2v-8z" fill="#706D6E"/>
<path transform="translate(1603,568)" d="m0 0h8l2 2v24l-1 7h14l1 1v8h-25v-41z" fill="#433F40"/>
<path transform="translate(549,384)" d="m0 0 7 1 5 3 4 7v2l4-2h3l1-4 7-6 1 3-5 5 1 2h5v2l-2 1v8l-4 6h-11v7l-3-3-1-2-3-1v6h-3l-1-5-6-3h-2l-1 3-3 1v-8l-3-5-4-2v-2l7-1 3-2v-7zm0 3-1 4 1 3 12 3-1-5-4-4zm-3 11-3 3 2 5h2l1-8zm5 0-1 3v8h5l1-11zm19 0-4 3 1 7 1 1h6l3-3v-5l-4-3zm-11 2-2 5v4l5 1 1-1v-7z" fill="#EEBC35"/>
<path transform="translate(1506,568)" d="m0 0h7l2 1v32h13l1 1v8h-24v-41z" fill="#3A3637"/>
<path transform="translate(611,372)" d="m0 0 10 4 17 10 1 29 21 12 3 2v12l-2 18h-1l-1-28-22-12-5 2-18 10-1-2 4-4 11-6 6-4v-26l-5-4-11-6-5-3-5 1-18 10h-2l-2 9h-1v-9l9-6 14-8z" fill="#EEBF43"/>
<path transform="translate(511,449)" d="m0 0h1v14l-2 10v10l4 3 5-2v-11l-1-10 5 1 11 6 4 2v32h-3l-1-9v-20l-9-6-2-1v16l-5 5h-7l-5-6v-10l3-13 1-10z" fill="#666364"/>
<path transform="translate(534,415)" d="m0 0 5 1 11 6 9 5 5 1-1 31-3-3v-25l-5-2-18-10-4 1-18 10-2 1-1 18-1 1-1 10h-1v-29l4-4 18-10z" fill="#EFC24B"/>
<path transform="translate(1487,443)" d="m0 0 6 1 5 4 1 2v7l-4 5-2 1h-7l-7-7 1-8 4-4z" fill="#4A1C02"/>
<path transform="translate(561,451)" d="m0 0h1v8l6 2 18 10 8-4 2 1-5 5-2 1-1 23-2 3-1-1v-25l-5-2-18-10-6 2-17 10v-3l5-4 15-9z" fill="#5B5858"/>
<path transform="translate(538,502)" d="m0 0 7 3-1 4-1 7 2 2 10-1 2 1 1 7v19l3 6h6l6-6h2l-1 5-5 4h-10l-4-6-1-3v-23l-10 1-5-6 1-7 1-3-4-2z" fill="#666364"/>
<path transform="translate(611,372)" d="m0 0 10 4 16 9-3 3-21-12-5 1-18 10h-2l-2 9h-1v-9l9-6 14-8z" fill="#F4D22E"/>
<path transform="translate(1353,424)" d="m0 0 3 1-8 19-5-5-3-6 6-5z" fill="#EDC929"/>
<path transform="translate(1354,422)" d="m0 0m-2 1 2 1-11 7-4 2-1 4-3 3h-5l-3-3 1-7 3-2 5 1 1 3 13-8z" fill="#4A2109"/>
<path transform="translate(632,503)" d="m0 0m-2 1 2 1-1 3-6 3h-2l3 11v13l-3 4-4 1 2-5 1-1v-11l-2-13z" fill="#686566"/>
<path transform="translate(1128,590)" d="m0 0h14l1 7-1 1h-15v-7z" fill="#403C3D"/>
<path transform="translate(582,511)" d="m0 0h2l-1 4-5 3-3 1 1 7v18l-3 1v-11l-2-14v-5l4-1 5-1z" fill="#696666"/>
<path transform="translate(1399,590)" d="m0 0h14v8h-14l-1-5z" fill="#3D393A"/>
<path transform="translate(1222,473)" d="m0 0 6 1 3 4-2 5-2 2h-5l-4-5 2-5z" fill="#532E19"/>
<path transform="translate(1057,437)" d="m0 0h6l3 4-1 6-3 2-5-1-3-4 1-5z" fill="#4B240E"/>
<path transform="translate(947,495)" d="m0 0 6 2 1 7-3 3h-6l-3-4 1-5z" fill="#582F17"/>
<path transform="translate(1006,493)" d="m0 0 5 2 2 3-1 5-2 2h-6l-3-4 1-6z" fill="#512913"/>
<path transform="translate(918,490)" d="m0 0 5 1 3 4-2 5-3 2-5-1-3-4 2-5z" fill="#542C13"/>
<path transform="translate(1134,477)" d="m0 0h6l3 4-1 5-3 3-5-1-3-4 1-5z" fill="#57321E"/>
<path transform="translate(1250,465)" d="m0 0h5l4 5-2 5-2 2-6-1-2-2 1-7z" fill="#4E2914"/>
<path transform="translate(1278,455)" d="m0 0 6 1 2 2-1 7-3 2-5-1-3-3 1-5z" fill="#502A14"/>
<path transform="translate(1306,442)" d="m0 0 5 2 2 2-1 6-2 2h-6l-3-3v-5z" fill="#512913"/>
<path transform="translate(815,434)" d="m0 0h5l3 3v6l-3 3-6-1-3-4 2-5z" fill="#502A15"/>
<path transform="translate(1127,418)" d="m0 0 6 2 2 5-3 5-7-1-3-5 2-4z" fill="#55301C"/>
<path transform="translate(889,481)" d="m0 0h5l3 3v6l-3 3-6-1-2-2v-6z" fill="#4E2914"/>
<path transform="translate(1165,479)" d="m0 0 5 1 2 3v5l-3 3-7-1-1-1v-7z" fill="#4D2611"/>
<path transform="translate(1049,383)" d="m0 0h6l4 4-2 5-2 2h-5l-4-4 1-5z" fill="#512B13"/>
<path transform="translate(1129,366)" d="m0 0 5 2 2 3-1 4-3 3h-5l-3-4 1-6z" fill="#522A12"/>
<path transform="translate(862,468)" d="m0 0h7l3 5-3 6-7-1-2-2v-6z" fill="#542E18"/>
<path transform="translate(1108,440)" d="m0 0 4 1 4 5-3 5-1 1-7-1-1-2v-6z" fill="#532B14"/>
<path transform="translate(1139,392)" d="m0 0 5 1 3 3-1 5-2 2h-7l-2-3v-5z" fill="#532C12"/>
<path transform="translate(1100,357)" d="m0 0 6 1 2 2v6l-5 3-5-2-2-5z" fill="#583115"/>
<path transform="translate(840,452)" d="m0 0 5 2 2 5-4 5-6-1-2-3 1-6z" fill="#59341F"/>
<path transform="translate(1059,475)" d="m0 0h6l3 3v5l-3 3h-6l-2-2v-7z" fill="#4D260F"/>
<path transform="translate(1047,411)" d="m0 0 5 2 2 5-5 5-5-1-2-3 1-6z" fill="#56301A"/>
<path transform="translate(1033,486)" d="m0 0 6 1 2 2-1 7-1 1h-7l-2-2v-6z" fill="#4F2812"/>
<path transform="translate(1194,478)" d="m0 0 5 1 3 4-2 5-1 1h-7l-2-2 1-7z" fill="#542D14"/>
<path transform="translate(1081,459)" d="m0 0h7l3 4-2 5-2 2-6-1-2-3 1-6z" fill="#4D260F"/>
<path transform="translate(1460,319)" d="m0 0h2v2l-7 3-4 2-15 15-6 10v15h-2l-1-14v-3h2l6-10 9-10 9-7z" fill="#80745B"/>
<path transform="translate(975,497)" d="m0 0 7 1 1 1v6l-3 3-7-1-1-7z" fill="#512A13"/>
<path transform="translate(1106,469)" d="m0 0h6l2 2v7l-3 3-5-1-2-2v-7z" fill="#4E260F"/>
<path transform="translate(1074,363)" d="m0 0 5 3v7l-3 2-6-1-1-1v-7z" fill="#4D2611"/>
<path transform="translate(662,441)" d="m0 0h1v18l-4 4-12 6 2-4 10-6h2z" fill="#545051"/>
<path transform="translate(566,534)" d="m0 0 4 2 1 1v6l-2 3-5-1-1-1v-8zm0 3-1 4 2 2 1-5z" fill="#6F6C6D"/>
<path transform="translate(558,459)" d="m0 0m-2 1 2 1v2l-19 11v-3l5-4z" fill="#615D5E"/>
<path transform="translate(606,535)" d="m0 0 5 4h11l-4 4h-8l-6-5z" fill="#B7B5B6"/>
<path transform="translate(544,526)" d="m0 0 4 1 2 2-1 4-2 2-5-1-1-5zm1 3-1 3 3-1z" fill="#716E6F"/>
<path transform="translate(628,419)" d="m0 0m-2 1 2 1-1 3-14 7 1-4z" fill="#F0C552"/>
<path transform="translate(549,384)" d="m0 0 7 1 5 3-2 1-1 2-5-3-4-1v2l-4-1z" fill="#F4D241"/>
<path transform="translate(509,431)" d="m0 0h1l1 11h1v7l-1 1-1 10h-1z" fill="#FDFDFD"/>
<path transform="translate(606,460)" d="m0 0 2 1-5 5-8 4 2-5z" fill="#5E5B5C"/>
<path transform="translate(513,427)" d="m0 0 2 1-2 3-1 11-2 2v-15z" fill="#ECB522"/>
<path transform="translate(572,544)" d="m0 0h3l-1 5-5 4h-5l3-1v-2l4-4z" fill="#FDFDFD"/>
<path transform="translate(538,502)" d="m0 0 7 3-1 4-2 2h-2l1-5-4-2z" fill="#868485"/>
<path transform="translate(1354,422)" d="m0 0m-2 1 2 1-11 7-4 2-1 3 1-5 11-7z" fill="#655D5A"/>
<path transform="translate(1495,445)" d="m0 0 5 2 2 2-2 9-2 1v-9z" fill="#ECB115"/>
<path transform="translate(557,544)" d="m0 0 4 6 6 1-3 2h-5l-3-5z" fill="#ACAAAB"/>
<path transform="translate(591,383)" d="m0 0m-2 1 3 1-4 2-2 9h-1v-9z" fill="#F0C317"/>
<path transform="translate(1477,373)" d="m0 0 1 4-5 4-4 2 2-4z" fill="#DDD4BD"/>
</svg>
