<?xml version="1.0" encoding="UTF-8"?>
<svg version="1.1" viewBox="0 0 1600 1600" width="1280" height="1280" xmlns="http://www.w3.org/2000/svg">
<path transform="translate(764,278)" d="m0 0h58l31 3 27 4 31 7 29 9 27 10 24 11 27 14 18 11 15 10 19 14 17 14 12 11 17 16 9 10 8 8 9 11 12 15 12 17 11 17 11 19 12 23 11 25 9 24 9 31 5 23 5 30 3 30 1 19v23l-3 39-4 27-6 29-9 31-10 28-13 29-12 23-14 23-11 16-9 12-11 14-12 14-12 13-18 18-11 9-10 9-13 10-19 14-17 11-23 13-16 8-24 11-27 10-26 8-36 8-26 4-33 3h-45l-39-4-33-6-28-7-36-12-26-11-19-9-20-11-24-15-18-13-14-11-14-12-12-11-25-25-9-11-8-9-10-13-13-18-13-21-12-21-13-27-10-25-10-30-8-32-6-36-3-30-1-19v-16l1-18 1-6 2-24 4-25 6-28 8-28 8-23 8-17 8-10 7-7 11-7 12-5 16-3 17 1 13 4 13 7 12 11 6 7 8 16 4 17v11l-4 18-12 36-6 27-4 29-1 14v24l3 30 5 27 6 22 8 23 12 26 11 20 8 12 10 14 18 22 22 22 11 9 17 13 22 14 24 13 27 11 25 8 30 7 22 3 15 1h27l23-2 25-4 28-7 23-8 21-9 21-11 19-12 19-14 13-11 12-11 11-11 9-11 10-12 14-20 12-21 12-25 9-24 7-25 5-25 2-18 1-15v-29l-3-31-6-30-8-26-10-25-12-24-13-21-10-14-11-14-12-13-19-19-11-9-19-14-19-12-27-14-28-11-31-9-21-4-24-3-15-1h-21l-32 3-8 1 1 124 7-2 19-2 8-1h12l13 2 16 1 20 4 27 9 15 7 16 9 19 14 22 22 14 19 11 19 8 18 6 19 3 13 3 18v33l-3 22-5 19-7 19-8 16-9 15-13 17-22 22-15 11-13 8-15 8-17 7-21 6-16 3-10 1h-29l-27-4-23-7-17-7-20-11-11-8-13-10-16-16-11-14-8-11-10-17-9-21-7-23-3-18-1-150v-35l1-209 5-16 7-13 11-12 8-7 15-9 22-9 22-6 22-4 27-3zm31 389-14 2-12 5-10 6-10 9-9 14-5 14-1 5v15l3 12 7 14 9 10 9 8 16 8 16 3h8l15-3 14-7 11-9 8-10 8-16 2-8v-18l-4-15-6-11-10-12-10-7-13-6-17-3z" fill="#F28F50"/>
<path transform="translate(441,515)" d="m0 0 17 1 13 4 13 7 12 11 6 7 8 16 4 17v11l-4 18-12 36-6 27-4 29-1 14v24l3 30 5 27 6 22 8 23 12 26 11 20 8 12 10 14 18 22 17 17-1 2-8-7v-2l-5-2-7-2-5 2-7 1-6 3-7 6-4 7-9 8h-2v2l-8 6-11 6-5 3-13 5-12 6-5 1-2 5-3 7-4 1-9-5 4 8-4-2-11-14-13-18-10-15-13-22-12-23-13-30-10-28-8-29-6-29-4-27-2-23-1-19v-16l1-18 1-6 2-24 4-25 6-28 8-28 8-23 8-17 8-10 7-7 11-7 12-5z" fill="#D37643"/>
<path transform="translate(853,284)" d="m0 0h10l37 7 20 6 8 2 10 4 1 2 8 1 3 2 8 2 24 10 23 11 18 10 9 6 16 10 15 11 12 9 5 2 15 13 10 10 8 7 5 6 15 15 9 11 12 15 12 17 11 17 11 19 12 23 11 25 7 19v7l2 9v10l-2 2v-2h-2l-3-5-4-4-8-11-10-13-8-10-3-3v-2h-2l-4-5-13-13-3-2v-2h-2l-12-12-22-18-11-8-15-10-9-5-23-13-14-7-26-10-26-6-22-3-9-1-45-1-8-2-18-8-4-1v-2l-5-2-4-2v-2h-2v-2l-4-1v-2l-3-1v-9l-2-6v-10l-5-6 1-6-4-10h-2v-2l2-1-1-5h3v-7l-2-9 2-3v-10-3l-3-3 1-7h-3l-1-3-7-7-2-1-3-7-3-3-1-5h3l1-3z" fill="#D3402F"/>
<path transform="translate(441,515)" d="m0 0 17 1 13 4 13 7 12 11 6 7 8 16 4 17v11l-4 18-11 33-1-2-6 2-15 8-16 10-7 5h-2v2l-4 1-1 3-10 7-9 8-8 7-17 17-3 6h-2v2l-5 5-5 6-3 7-4 4v3l-2 1-2 6-7 14h-2v5l-8 20-2 10h-2l-2-10-2-13-2-23-1-19v-16l1-18 1-6 2-24 4-25 6-28 8-28 8-23 8-17 8-10 7-7 11-7 12-5z" fill="#F28F4F"/>
<path transform="translate(493,638)" d="m0 0h5l-1 9-6 29-3 23-1 14v24l3 30 5 27 5 19v5l-4 2-6-1-2-2-15 1-2 5-12 7-9 5-6 4-9 3-2 2-5 2v3l-5 3-3 3-3 1v-2l2-2-10 7h-2v2l-7 6-4 6-5 5-2 4-4 6h-2v-2h-3l-7-18-9-30-6-26-2-11v-4h2l1-11h2l-1-3h2l-1-3h2l-1-3 1-2h2l1-8 2-5h2l2-6 4-8 3-7 3-5h2l3-9 9-11h2v-2h2l2-6 24-24 4-3h2l1-3 12-9 5-4h2v-2l11-7 7-5 9-5z" fill="#BF3119"/>
<path transform="translate(833,793)" d="m0 0 6 2 9 2 9 4 8 4 10 4 13 10 8 6v2l4 2 3 3v3l4 2 6 5 1 2h3l2 3 7 2 4 2-1 7-7 9-3 4h-2l-2 4-2 3h-2l-1 4-17 11-17 9-17 7-21 6-16 3-10 1h-29l-27-4-23-7-17-7-20-11-11-8-9-7-2-5 8-3 27-7 8-3 21-8 26-12 22-12 12-8 13-10 10-9 7-4z" fill="#C9572F"/>
<path transform="translate(853,284)" d="m0 0h10l37 7 20 6 8 2 10 4v2l-6 2 7 15v2l4 1 4 8 4 12v2h-2l2 10v5h-2l1 12 2 6v14l4 4 2 9 3 9 3 7 2 2-1 4 3 2v2l3 1 5 5-54-1-8-2-18-8-4-1v-2l-5-2-4-2v-2h-2v-2l-4-1v-2l-3-1v-9l-2-6v-10l-5-6 1-6-4-10h-2v-2l2-1-1-5h3v-7l-2-9 2-3v-10-3l-3-3 1-7h-3l-1-3-7-7-2-1-3-7-3-3-1-5h3l1-3z" fill="#DB5938"/>
<path transform="translate(481,816)" d="m0 0h7l4 3 7-1 2-2 8 23 12 26 8 15-1 2-7-3-13-5-9 1-6 3h-2l-2 4-4 1-2 4-5 3-2 4-9 3v2l-15 7-5 1-4 2-4 4-11 6-6 7-6 10-5 5-6-2-5-8-13-27-7-17 3-1v2l4-4 3-9 2 2 6-8 7-8h2v-2l13-9v3l-3 1h3 2l1-3 3-2-1-2 4-3 5-2 5-3 6-2 5-3 9-5 12-7 2-4z" fill="#C9572F"/>
<path transform="translate(833,793)" d="m0 0 6 2 9 2 9 4 8 4 10 4 13 10 8 6v2l4 2 3 3v3l4 2 6 5 1 2h3l2 3 7 2 4 2-1 7-7 9-3 4h-2l-2 4-2 3h-2l-1 4-17 11-17 9-17 7-10 3-3-1h2v-2l13-4 10-9-1-5-2-2-7-3-5-6-6-5-4-2-4-4v-2l-4-2v-2l-7-2-11-8v-2l-5-2-4-4-9-4-9-5v-2l-3 1-3-3h-9l-4 2-3-1 15-8 12-8 13-10 10-9 7-4z" fill="#D37643"/>
<path transform="translate(487,750)" d="m0 0h1l4 29 5 23 3 11v5l-4 2-6-1-2-2-15 1-2 5-12 7-9 5-6 4-9 3-2 2-5 2v3l-5 3-3 3-3 1v-2l2-2-10 7h-2v2l-7 6-4 6-5 5-2 4-4 6h-2v-2h-3l-7-18-9-30-1-8 4 3h5l1-6 3-5 4-3h2l2-4 10-10 7-6 8-4 7-3 4-2 3-3 4-1 2 1v-2h2v-2l5-1 2-4 7-6 9-4 9-3 4-1 4-3 4 2 6 1 5-3z" fill="#C34424"/>
<path transform="translate(853,284)" d="m0 0h10l16 3 2 6 3 6 2 1 7 15v2h2l2 10 1 10 4 24 5 14 4 13 2 3 1 7v10l-2 18-1 5 6 2 7 2 3 1 30 1v1h-35l-8-2-18-8-4-1v-2l-5-2-4-2v-2h-2v-2l-4-1v-2l-3-1v-9l-2-6v-10l-5-6 1-6-4-10h-2v-2l2-1-1-5h3v-7l-2-9 2-3v-10-3l-3-3 1-7h-3l-1-3-7-7-2-1-3-7-3-3-1-5h3l1-3z" fill="#DA663E"/>
<path transform="translate(739,850)" d="m0 0 10 1 3 8 10 5 4 6 9 11 22 12 5 4v2l5 2 4 3 7 3 1 4h-3l-1 3-5 1h-54l-23-7-17-7-20-11-11-8-9-7-2-5 8-3 27-7 8-3 12-3 8-3z" fill="#C34524"/>
<path transform="translate(504,873)" d="m0 0 8 1 9 4 9 3 10 16 4 6v2l-6-1-3-1-10 1h-12l-3 6-10 10-8 7-11 7-8 3-9 2-12 7-8 6-2 2-4 1-4 10-9-2v-2l-4-1-3-5-6-3-7-12 3-1h4 2l2-4 7-12 7-6 9-5 6-5 6-2 12-5 4-1v-2l6-3h3l1-4 3-3 3-1 2-5 5-1 3-3 6-3z" fill="#CE6739"/>
<path transform="translate(799,819)" d="m0 0 5 1 4 3 9 2 7 3 4 2 2 2 10 2 14 10 9 6 6 6 5 3 11 10 1 4 4 1 3 3 4 1-1 5-4 6-8 6-9 5h-2v3l-14 6-10 3-3-1h2v-2l13-4 10-9-1-5-2-2-7-3-5-6-6-5-4-2-4-4v-2l-4-2v-2l-7-2-11-8v-2l-5-2-4-4-9-4-9-5v-2l-3 1-3-3h-9l-4 2-3-1 15-8 6-4z" fill="#CE6739"/>
<path transform="translate(703,865)" d="m0 0 4 1 1 4-3 2 4 3 5 2 8 5 7 8v2h2v2l6 1 2 5 1 2h-9l-1 1-12-1-22-12-11-8-9-7 1-5 15-2 5-2z" fill="#C0321B"/>
<path transform="translate(867,328)" d="m0 0 2 4 1 14 2 5 2 1 8 26 2 5 1 12-1 7-2 1-3 12-5-2v-9l-2-6v-10l-5-6 1-6-4-10h-2v-2l2-1-1-5h3v-7l-2-9 2-3v-10z" fill="#D37542"/>
<path transform="translate(744,418)" d="m0 0h2v124l-2 2-1-2z" fill="#C54626"/>
<path transform="translate(853,284)" d="m0 0 4 1-4 5h2l1 7 4 2 1 5 2 5 1 7h-3l-1-3-7-7-2-1-3-7-3-3-1-5h3l1-3z" fill="#D37643"/>
<path transform="translate(608,568)" d="m0 0h1l1 26-1 144h-1l-1-136v-28z" fill="#D1663C"/>
<path transform="translate(764,915)" d="m0 0 22 1 1 1h19l2-1h18l-4 2-10 1h-29l-19-3z" fill="#E4814A"/>
<path transform="translate(799,819)" d="m0 0 5 1 2 4-4 1h-9l-2-1v2l-7 1 5-4 3-2z" fill="#D9683E"/>
<path transform="translate(694,864)" d="m0 0 4 1-1 2-9 3-9 1-2-1-1 3-2-1 1-3z" fill="#C64C29"/>
<path transform="translate(414,952)" d="m0 0 5 3 3 5 3 2-1 6-3-1-8-14z" fill="#DC6B40"/>
<path transform="translate(689,884)" d="m0 0 9 1 4 4 3 2v2l3 1-1 2-14-8z" fill="#E27846"/>
<path transform="translate(1077,378)" d="m0 0 4 2 14 12 4 5-5-2-8-8-8-6z" fill="#F08E51"/>
<path transform="translate(887,891)" d="m0 0m-1 1m-1 1m-1 1h5l-3 3-10 5h-3v-2z" fill="#E18148"/>
<path transform="translate(676,874)" d="m0 0 10 2 2 6 1 2-4-2-9-7z" fill="#D35A33"/>
<path transform="translate(1125,423)" d="m0 0 7 6 7 9h-3l-7-8-4-5z" fill="#F19153"/>
<path transform="translate(858,906)" d="m0 0h6l-3 2-12 4-3-1h2v-2z" fill="#E0804B"/>
<path transform="translate(689,884)" d="m0 0 9 1 2 4-7-1z" fill="#CD5A35"/>
</svg>
