<?xml version="1.0" encoding="UTF-8"?>
<svg version="1.1" viewBox="0 0 842 1191" width="1280" height="1280" xmlns="http://www.w3.org/2000/svg">
<path transform="translate(385,266)" d="m0 0h45l23 3 26 6 22 8 20 9 17 10 17 12 11 9 12 11 11 11 9 11 14 19 13 23 10 23 7 22 5 24 2 17v42l-3 23-6 25-8 22-12 25-11 18-9 12-9 11-11 12-8 8-11 9-17 13-20 12-23 11-30 10-24 5-17 2h-40l-23-3-25-6-20-7-20-9-18-10-17-12-10-8-10-9-9-8-7-8-11-13-12-17-14-25-8-19-7-21-5-22-3-25v-34l3-25 6-26 7-20 5-9 5-6 9-6 10-3h11l10 3 9 6 7 8 5 12v15l-8 24-4 20-1 8v32l3 19 6 21 9 21 9 15 9 12 9 10 4 5 8 7 13 10 18 11 18 8 15 5 17 4 21 2h12l21-2 22-5 16-6 16-8 12-7 13-10 10-9 10-10 10-13 11-18 8-17 6-19 3-14 2-17v-22l-2-17-5-21-6-17-11-21-9-13-9-11-16-16-15-11-15-9-18-8-19-6-22-4h-37l-8 1-1 67 10-2h25l17 3 15 5 14 7 13 10 12 12 10 15 7 15 4 15 2 18-1 17-4 17-8 18-10 14-10 11-13 10-17 9-16 5-12 2h-20l-20-4-15-6-12-7-9-7-9-8-8-10-8-13-5-11-4-13-2-11v-209l4-13 6-8 8-7 16-8 19-5zm23 208-9 2-9 5-7 7-5 10-1 3v14l4 10 8 9 9 5 6 2h13l11-4 10-9 6-12v-16l-4-10-8-9-9-5-10-2z" fill="#F38C4C"/>
<path transform="translate(379,341)" d="m0 0h3l1 67 10-2h25l17 3 15 5 14 7 13 10 12 12 10 15 7 15 4 15 2 18-1 17-4 17-8 18-10 14-10 11-13 10-17 9-16 5-12 2h-20l-20-4-15-6-12-7-9-7-9-8-8-10-8-13-5-11-4-13-2-11v-130l3 1 2-4 9-11 11-11 14-10 16-8zm29 133-9 2-9 5-7 7-5 10-1 3v14l4 10 8 9 9 5 6 2h13l11-4 10-9 6-12v-16l-4-10-8-9-9-5-10-2z" fill="#F38C4C"/>
<path transform="translate(216,393)" d="m0 0h11l10 3 9 6 7 8 5 12v15l-8 24-4 20-1 8v32l3 19 6 21 9 21 9 15 9 12 9 10 4 5 8 7 13 10 18 11 18 8 15 5 17 4 1 3 18 12 17 9 15 6 23 6 15 2 3 1h28l25-3 14-2-1 3-19 11-21 10-30 10-24 5-17 2h-40l-23-3-25-6-20-7-20-9-18-10-17-12-10-8-10-9-9-8-7-8-11-13-12-17-14-25-8-19-7-21-5-22-3-25v-34l3-25 6-26 7-20 5-9 5-6 9-6z" fill="#F38C4C"/>
<path transform="translate(216,393)" d="m0 0h11l10 3 9 6 7 8 5 12v15l-8 24-4 20-1 8v32l2 14v7l-16 12-18 13-19 14-7 5-3-1-7-24-4-21-2-18v-34l3-25 6-26 7-20 5-9 5-6 9-6z" fill="#F38C4C"/>
<path transform="translate(384,674)" d="m0 0 4 1 19 12 19 9 18 6 20 4 11 2h28l25-3 14-2-1 3-19 11-21 10-30 10-24 5-17 2h-40l-23-3-25-6-20-7-4-4 5-5 18-13 38-28z" fill="#FDC76E"/>
<path transform="translate(491,281)" d="m0 0 8 1 22 10 17 10 17 12 11 9 12 11 11 11 9 11 14 19 13 23 10 23 7 22v6l-4-5-12-17-11-13-10-11-8-7-15-12-17-11-21-11-17-6-15-3-3-2-15-53-4-16z" fill="#E83C2C"/>
<path transform="translate(247,459)" d="m0 0h2l-1 11-3 19v32l2 14v7l-16 12-18 13-19 14-7 5-3-1-7-24-2-9v-11l6-17 8-15 10-13 14-14 17-13 13-8z" fill="#E83A2B"/>
<path transform="translate(379,341)" d="m0 0h3v64l-67 19h-5v-33l8-10 9-10 7-7 14-10 16-8z" fill="#E83A2B"/>
<path transform="translate(332,279)" d="m0 0 2 2 19 66 1 3-4 4-11 7-13 12-10 11-4 6-3-1v-79l4-13 6-8 8-7z" fill="#FDC86E"/>
<path transform="translate(382,670)" d="m0 0 22 1h24l8 6 23 12 22 12 8 5 1 2h-18l-20-3-20-6-17-7-15-8-17-12z" fill="#E83B2B"/>
<path transform="translate(386,569)" d="m0 0 5 4 7 8 10 11 7 8 5 7v1h-26l-19-5-16-8-12-8-1-4 33-11z" fill="#E83C2C"/>
<path transform="translate(347,804)" d="m0 0h16l7 3 5 5 2 4v12l-4 7 5 5 2 4v10l-4 8-7 5-3 1h-15l-2-3 1-4 3-2 12-1 5-4v-9l-5-4-13-1-3-3 1-5 1-1 11-1 5-3 1-7-3-5-2-1-15-1v54l-5 2-3-2v-57l4-5z" fill="#FBFBFB"/>
<path transform="translate(444,804)" d="m0 0h38l2 3-1 4-3 2h-14l1 3v50l-2 3h-5l-2-3-1-50-3-2-9-1-4-3 1-5z" fill="#FCFBFC"/>
<path transform="translate(409,803)" d="m0 0 5 1 1 1v62l-2 2h-5l-1-1v-64z" fill="#FDFDFD"/>
<path transform="translate(168,900)" d="m0 0h7l3 2v5 3 6l-3 2h-7zm2 2v6l5-1 1-3-1-2zm0 8v6h5l1-5-1-1z" fill="#E7996E"/>
<path transform="translate(374,905)" d="m0 0h8 3 5l2 2v11h-2l-1-11-4 1-1 10h-2l-1-11h-4l-1 11h-2z" fill="#F18E53"/>
<path transform="translate(618,905)" d="m0 0h8v15l-3 3h-6l-1-2 7-2 1-2-6 1-3-3v-7zm1 2-2 2v5l2 2 4-1 1-1v-5l-2-2z" fill="#EB9462"/>
<path transform="translate(660,900)" d="m0 0h2v8h9v-8h2v18h-2v-8h-9v8h-2z" fill="#F48C4C"/>
<path transform="translate(96,900)" d="m0 0h8l3 3v5l-3 3h-6v7h-2zm2 2v7h5l2-2-1-4-1-1z" fill="#EF9057"/>
<path transform="translate(532,899)" d="m0 0h2v7l6-1 2 2v11h-2l-1-10-4 1-1 9h-2z" fill="#F08F54"/>
<path transform="translate(502,905)" d="m0 0 5 1 2 2v4l-8 1 1 2 6 1v2h-7l-3-3v-6zm0 2-2 3h7l-1-3z" fill="#EE915A"/>
<path transform="translate(250,905)" d="m0 0 5 1 2 2v4l-8 1 1 2 6 1v2h-7l-3-3v-6zm0 2-2 3h7l-1-3z" fill="#EE915A"/>
<path transform="translate(719,905)" d="m0 0h5l3 3v7l-3 3h-6l-3-4 1-7zm0 2-2 3 1 5 5 1 2-2v-5l-2-2z" fill="#ED935E"/>
<path transform="translate(572,905)" d="m0 0h5l3 3v7l-3 3h-6l-3-4 1-7zm0 2-2 3 1 5 5 1 2-2v-5l-2-2z" fill="#ED935E"/>
<path transform="translate(442,905)" d="m0 0h5l3 3v7l-3 3h-6l-3-4 1-7zm0 2-2 3 1 5 5 1 2-2v-5l-2-2z" fill="#ED935E"/>
<path transform="translate(346,905)" d="m0 0h5l3 3v7l-3 3h-6l-3-4 1-7zm0 2-2 3 1 5 5 1 2-2v-5l-2-2z" fill="#ED935E"/>
<path transform="translate(116,905)" d="m0 0h5l3 3v7l-3 3h-6l-3-4 1-7zm0 2-2 3 1 5 5 1 2-2v-5l-2-2z" fill="#ED935E"/>
<path transform="translate(682,905)" d="m0 0 7 1 1 1v11h-4l-5-1-1-4 3-3 4-1v-2l-6 1zm1 7v4h4l1-4z" fill="#EE915A"/>
<path transform="translate(632,905)" d="m0 0h3l3 7 3-7 3 1-6 15-5 2 1-3h2l-1-7z" fill="#E7986C"/>
<path transform="translate(140,905)" d="m0 0h3l3 7 3-7 3 1-6 15-5 2v-2l3-3-3-10z" fill="#E8986B"/>
<path transform="translate(601,905)" d="m0 0 6 1 2 3-1 7-3 2h-5l-3-3v-7zm0 2-2 2v5l2 2 5-1 1-5-2-3z" fill="#EE915A"/>
<path transform="translate(401,905)" d="m0 0h5l2 2v11h-8l-1-1v-5l3-2h4l-1-2-5-1zm1 7v4l4-1v-3z" fill="#EC935F"/>
<path transform="translate(698,905)" d="m0 0h8l2 2v11h-2l-1-11-4 1-1 10h-2z" fill="#EF9058"/>
<path transform="translate(551,905)" d="m0 0h8l2 2v11h-2l-1-11-4 1-1 10h-2z" fill="#EF9058"/>
<path transform="translate(229,905)" d="m0 0h8l2 2v11h-2l-1-11-4 1-1 10h-2z" fill="#EF9058"/>
<path transform="translate(186,905)" d="m0 0h2l1 10h4l1-10h2v13h-8l-2-2z" fill="#F18E53"/>
<path transform="translate(482,900)" d="m0 0h12l1 2h-6v16h-2v-16h-5z" fill="#F38C4E"/>
<path transform="translate(334,899)" d="m0 0h4v2l-3 1-1 3h3v2h-3v11h-2v-11h-2v-2h2l1-5z" fill="#F08F55"/>
<path transform="translate(265,905)" d="m0 0h5l1 2-5 1 5 4-1 5-1 1h-6v-2h6v-3l-5-2-1-4z" fill="#E7996E"/>
<path transform="translate(205,905)" d="m0 0h5l1 2-5 1 5 4-1 5-1 1h-6v-2h6v-3l-5-2-1-4z" fill="#E7996E"/>
<path transform="translate(280,905)" d="m0 0h5v2h-5v3l5 1 1 5-2 2h-6v-2l5-1-3-3-2-1 1-5z" fill="#E99667"/>
<path transform="translate(168,900)" d="m0 0 4 1-2 7 3 1-2 1-1 6h4v2h-6z" fill="#F48C4C"/>
<path transform="translate(519,905)" d="m0 0h5l1 2-6 1-1 5 1 2 6 1-1 2h-6l-3-3v-6z" fill="#E8986A"/>
<path transform="translate(417,902)" d="m0 0h2v3h3v2h-3v9h3v2l-5-1v-10h-2v-2h2z" fill="#F28D4E"/>
<path transform="translate(618,905)" d="m0 0 6 1-2 2-4 1v5l4 4-6-1-1-2v-7z" fill="#E49C75"/>
<path transform="translate(587,899)" d="m0 0h2v19h-2z" fill="#F48C4C"/>
<path transform="translate(132,899)" d="m0 0h2v19h-2z" fill="#F48C4C"/>
<path transform="translate(303,900)" d="m0 0h2v18h-2z" fill="#F48C4C"/>
<path transform="translate(385,905)" d="m0 0h5l2 2v11h-2l-1-11h-4z" fill="#EE915A"/>
<path transform="translate(361,905)" d="m0 0h4 2v2l-3 3-1 8h-2z" fill="#F28D4F"/>
<path transform="translate(461,905)" d="m0 0 5 1 1 1v11h-2l-1-10-4-2z" fill="#EE925B"/>
<path transform="translate(317,905)" d="m0 0 5 1 1 1v11h-2l-1-10-4-2z" fill="#EE925B"/>
<path transform="translate(536,905)" d="m0 0 5 1 1 1v11h-2l-1-10z" fill="#ED925C"/>
<path transform="translate(698,905)" d="m0 0 4 2-1 1-1 10h-2z" fill="#F28D50"/>
<path transform="translate(551,905)" d="m0 0 4 2-1 1-1 10h-2z" fill="#F28D50"/>
<path transform="translate(229,905)" d="m0 0 4 2-1 1-1 10h-2z" fill="#F28D50"/>
<path transform="translate(374,905)" d="m0 0 3 1-1 12h-2z" fill="#F08F54"/>
<path transform="translate(683,910)" d="m0 0 5 1v1l-5 1v2l4 2-5 1-2-2 1-5z" fill="#E8986C"/>
<path transform="translate(402,910)" d="m0 0 4 2-4 1v2l3 3h-5l-1-1v-5z" fill="#DFA182"/>
<path transform="translate(457,905)" d="m0 0h2l1 4-1 9h-2z" fill="#F28D50"/>
<path transform="translate(313,905)" d="m0 0h2l1 4-1 9h-2z" fill="#F28D50"/>
<path transform="translate(194,905)" d="m0 0h2v13h-2l-1-3z" fill="#F48C4C"/>
<path transform="translate(735,905)" d="m0 0h2v13h-2z" fill="#F48C4C"/>
<path transform="translate(429,905)" d="m0 0h2v13h-2z" fill="#F48C4C"/>
<path transform="translate(219,905)" d="m0 0h2v13h-2z" fill="#F48C4C"/>
<path transform="translate(735,900)" d="m0 0h2l-1 3-2-2z" fill="#EC9461"/>
<path transform="translate(429,900)" d="m0 0h2l-1 3-2-2z" fill="#EC9461"/>
<path transform="translate(219,900)" d="m0 0h2l-1 3-2-2z" fill="#EC9461"/>
</svg>
