<?xml version="1.0" encoding="UTF-8"?>
<svg version="1.1" viewBox="0 0 1500 1500" width="1280" height="1280" xmlns="http://www.w3.org/2000/svg">
<path transform="translate(756,307)" d="m0 0 9 1v2l5 1 7 3 1-2 5 2-2 2 5 3 8 3 8 7 1 4h3l-2-5 5 4-1 4-1 2 2 1 4 21h2v7h3l5-3 4-1 1-3 6-1 4-2 7-1 4-1v2l1-1h13l-3 2 4-1 1-1-3-2 6 1 14 7 13 8 10 7 14 14 4 5 2 6 5 10v7l-1-2v3l4 4 2 7 3 8 2 9 1 6-1 27-1 8-1 12-2 3-2-1 1 6-4 9-6 11-6 10v4h-2l1 5-2 3-1 9h-2l1 6-2 9-2 4-1 3 1 4 6 3 6 12 3 12 3 16v11l-3 18-6 21-5 13-4 6-6 3h-13l-4 39-4 18-5 13-9 16-3 6v45l7 8 10 12 8 14 6 12 12 26 7 10 8 8 19 9 27 10 29 11 37 13 26 11 19 10 21 14 22 15 12 9 14 12 10 13 13 25 14 34 10 30 11 48 11 58 6 34 6 35 17 74 12 52 8 43 1 12h-172l-4-11-5-17-5-1-1 6-2 23h-673v-22l-4 8-4 12-2 2h-191l7-34 9-35 12-36 11-34 14-46 12-36 10-28 11-29 10-30 12-45 8-26 9-26 11-25 8-15 12-19 9-10 14-10 33-22 15-8 26-10 48-17 47-16 30-10 17-6 6-4 10-16 7-14 11-27 6-13 2-15v-32l-8-16-8-14-6-15-6-23-5-27-1-2h-10l-9-6-6-9-5-13-4-21-2-29v-9l2-10 7-12 5-1 5 1v-3l-2-4 1-2h-2v-6l-2-4-1-7-2-2-1-6 2-4h-4l1-5-3-5-2-6 1-3-4-3 1-4-3 1-6-9v-2l-3-1-5-10-4-17-1-11 3-13 2-6 3-11 14-18 9-16 4-9 2-4 1 3 2-3-1-3 8-9 4-5 7-6 2-6 3-1 1-2-2-1 5-6h2l1-3 7-1 1-3 9-3 10-8 6-1 1-3 5-2 4-2 11-9 5-5 10-7 9-5 6-2 9-4 9-3 5-2h9v1l-13 3 16-3h15zm-3 5v1h5v-1zm-54 9v2h2v-2zm-2 2m96 1m1 1m1 1m-8 4 1 2zm12 6m1 1m5 10m-146 2m-9 6m216 3-3 2v2l-3 1v-3l-4-1v2h-2v-2l-4 1v2h2l1 2 9 1v2l8 3h6l-1-2-10-3v-2l13 6 7 4h2v2l4 2 1 2 3 2 7 8 1 1h5l2 4 7 9 2 1-1 2 1 2h4l2 7 2 1-1-7-3-6-4-1v-2l-2-2h2l-1-4-8-10-7-6-3-1h-2l-5-5-12-7-4-2v-2l-6-3zm-30 1 1 2 1-2zm-187 2m-1 1m-1 1m7 2m174 0m-198 2v2l-3 1 9-1-4-2zm6 0m4 1m11 1m225 1v3l5 1v-2zm-235 1-1 2 3-1zm-9 2 1 3 2-1v-2zm251 2 4 4 3-1-5-3zm-256 4m254 0 1 2 2-1zm9 0m-4 5m-265 3m-11 3-1 3h3l-1-3zm289 0 1 2z" fill="#E8EBF0"/>
<path transform="translate(756,307)" d="m0 0 9 1v2l5 1 7 3 1-2 5 2-2 2 5 3 8 3 8 7 1 4h3l-2-5 5 4-1 4-1 2 2 1 4 21h2v7h3l5-3 4-1 1-3 6-1 4-2 7-1 4-1v2l1-1h13l-3 2 4-1 1-1-3-2 6 1 14 7 13 8 10 7 14 14 4 5 2 6 5 10v7l-1-2v3l4 4 2 7 3 8 2 9 1 6-1 27-1 8-1 12-2 3-2-1 1 6-4 9-6 11-6 10v4h-2l1 5-2 3-1 9h-2l1 6-2 9-2 4-1 3 1 4 6 3 6 12 3 12 3 16v11l-3 18-6 21-5 13-4 6-6 3h-13l-4 39-4 18-5 13-9 16-3 6v45l7 8 10 12v13l-3 17-1 15-3 9-6 16-5 17-8 20-5 10-3 2v-3h-2v3l-5 4-1 3-2 1-2 4-7 5h-4v2l-11 4h-3v2l-8 4-6 5-10 5v2h-2l-2 4-4 4-4 6-4 5h-3l-2 4-5 3-1-5h-2l-4-12-2-7h-2l-3-6v-2h-2l-4-7-3-2-3-5-6-5-8-2v-2h-8l-9-3v-2l-5-1-4-2-4-5-5-3-2-4-5-5-10-16-3-2-2-5-5-8-3-2-3-7-8-15v-3h-2l-2-14-1-5v-18l2-4h1l1 15 2 7 4 3 2-1-2-2 2-9-2-5v-7l1-1-1-7-2-7 2-4h-2v-2l-5 1v-4l8-2-1-4h2l-1-5h-2l2-4-3-1v-2h4v-2h-2v-2h2v-3h-2l1-4-4-7-5-4-4-5-12-21-6-15-6-23-5-27-1-2h-10l-9-6-6-9-5-13-4-21-2-29v-9l2-10 7-12 5-1 5 1v-3l-2-4 1-2h-2v-6l-2-4-1-7-2-2-1-6 2-4h-4l1-5-3-5-2-6 1-3-4-3 1-4-3 1-6-9v-2l-3-1-5-10-4-17-1-11 3-13 2-6 3-11 14-18 9-16 4-9 2-4 1 3 2-3-1-3 8-9 4-5 7-6 2-6 3-1 1-2-2-1 5-6h2l1-3 7-1 1-3 9-3 10-8 6-1 1-3 5-2 4-2 11-9 5-5 10-7 9-5 6-2 9-4 9-3 5-2h9v1l-13 3 16-3h15zm-3 5v1h5v-1zm-54 9v2h2v-2zm-2 2m96 1m1 1m1 1m-8 4 1 2zm12 6m1 1m5 10m-146 2m-9 6m216 3-3 2v2l-3 1v-3l-4-1v2h-2v-2l-4 1v2h2l1 2 9 1v2l8 3h6l-1-2-10-3v-2l13 6 7 4h2v2l4 2 1 2 3 2 7 8 1 1h5l2 4 7 9 2 1-1 2 1 2h4l2 7 2 1-1-7-3-6-4-1v-2l-2-2h2l-1-4-8-10-7-6-3-1h-2l-5-5-12-7-4-2v-2l-6-3zm-30 1 1 2 1-2zm-187 2m-1 1m-1 1m7 2m174 0m-198 2v2l-3 1 9-1-4-2zm6 0m4 1m11 1m225 1v3l5 1v-2zm-235 1-1 2 3-1zm-9 2 1 3 2-1v-2zm251 2 4 4 3-1-5-3zm-256 4m254 0 1 2 2-1zm9 0m-4 5m-265 3m-11 3-1 3h3l-1-3zm289 0 1 2z" fill="#C5A196"/>
<path transform="translate(756,307)" d="m0 0 9 1v2l5 1 7 3 1-2 5 2-2 2 5 3 8 3 8 7 1 4h3l-2-5 5 4-1 4-1 2 2 1 4 21h2v7h3l5-3 4-1 1-3 6-1 4-2 7-1 4-1v2l1-1h13l-3 2 4-1 1-1-3-2 6 1 14 7 13 8 10 7 14 14 4 5 2 6 5 10v7l-1-2v3l4 4 2 7 3 8 2 9 1 6-1 27-1 8-1 12-2 3-2-1 1 6-4 9-6 11-6 10v4h-2l1 5-2 3-1 9h-2l1 6-2 9-7 14-6 5-3-4-2 3h-2l1 4-1 4-2 6h-1l-1-19-1-9 1-13-1-4v-4-5l-2-2-1-11-2-7v-3l-3-1-1-4h-2l-8-15-5-14-2-4h-2l-5-12-2-2v-4l-3 1-2-8-8-4-2-5h-2l-1-4-2-1v-2l-6-1v-3h-3l-2-5h-2v3h-2v-2l-3-1 1-2h-8v-2h2v-3h-5l-1-1h-3l-1-2-9-2-1-3-1 2-9-2-1-2h-3l-1 2-5-1-6 2-1 3-3-1-1 3-24 4h-2v-2l-14 4-3 2-10 2-15 8-2 3-1 4v3l1 3h-3l-1-2-1 4v4h2v9l2-1 2 9 2 4v2l3 5-4-2-2-2-2 4-1-4-3-1-3-7 2 10-3-3-3-11-1-5-1-7-7-1-2 8-10 10-6 3-3 1-1 4-4 4-4 7-2 4 3 7 7 6 4 4-4 1-4-2v-3l-4-2 1 3 2 1v2l-4-2-3-2v-3l-3-1-2-3-3 1-2 4-2 5-4 1-3 4-3 5h-2l-1 3-3 1 1 2-2 12-3 5 2-1 2-3 1 4-3 3-3 7h2v-2h2v4l1 1v7l-1 6h-2l-1 2-3 4 1 4-2 3-4-7v-2h-2l-4-10v-5l-2-2-1-6 2-4h-4l1-5-3-5-2-6 1-3-4-3 1-4-3 1-6-9v-2l-3-1-5-10-4-17-1-11 3-13 2-6 3-11 14-18 9-16 4-9 2-4 1 3 2-3-1-3 8-9 4-5 7-6 2-6 3-1 1-2-2-1 5-6h2l1-3 7-1 1-3 9-3 10-8 6-1 1-3 5-2 4-2 11-9 5-5 10-7 9-5 6-2 9-4 9-3 5-2h9v1l-13 3 16-3h15zm-3 5v1h5v-1zm-54 9v2h2v-2zm-2 2m96 1m1 1m1 1m-8 4 1 2zm12 6m1 1m5 10m-146 2m-9 6m216 3-3 2v2l-3 1v-3l-4-1v2h-2v-2l-4 1v2h2l1 2 9 1v2l8 3h6l-1-2-10-3v-2l13 6 7 4h2v2l4 2 1 2 3 2 7 8 1 1h5l2 4 7 9 2 1-1 2 1 2h4l2 7 2 1-1-7-3-6-4-1v-2l-2-2h2l-1-4-8-10-7-6-3-1h-2l-5-5-12-7-4-2v-2l-6-3zm-30 1 1 2 1-2zm-187 2m-1 1m-1 1m7 2m174 0m-198 2v2l-3 1 9-1-4-2zm6 0m4 1m11 1m225 1v3l5 1v-2zm-235 1-1 2 3-1zm-9 2 1 3 2-1v-2zm251 2 4 4 3-1-5-3zm-256 4m254 0 1 2 2-1zm9 0m-4 5m-265 3m-11 3-1 3h3l-1-3zm289 0 1 2z" fill="#2A0F2A"/>
<path transform="translate(367,1075)" d="m0 0 4 1 4 12 6 8 3 9v4l4 2-1-11 2 2 7 23 7 34 1 8-2-2-1-3-2 7-2 4-1 10-3 3-2 7-2 9v24l3 7 2-1 1-5 1-15 2-2v-12l1-15 5-5 1-6 2 2 4 23v-9h2v-12l2-11 1-9 1-6v-18l-4-23-3-14-3-9v-6l4-1 4 5 3 5 3 10 3 8 4 18 2 19-1 48 2 24 3 20 4 10 4 9 4 16 2 18 2 61 2 13h2l2 2 6 4 7 4 3 12 3 8 2 17-1 12-4 28v32l4 13 1 5h-70v-22l-4 8-4 12-2 2h-49l-1-1v-13l2-10 2-5 3-12 3-3 5 10h2l3-7 2-10 2-9 6-10v-2h2l1-18-7-75-3-20-1-11v-9l1-1v-26l2-5 3-3v-54l1-14 1-4h2l-1-8 3-8h1l1-11-3-2-5-1-2-4h-1l-1-14v-8l1-2h-2l-3-9-1-8-1-11v-11l1-14z" fill="#D0CFD7"/>
<path transform="translate(775,424)" d="m0 0h5l-1 3h7v2h2l1-3 2 1-1 2 10 2 2 3 1-2 2 1v1h5l-1 4h-2v2l5-1 4 1-1 2 2 1v2h2v-3h2l2 5h3v3h2l1-2v3h3v2l4 2 1 2 2 6 4 1 4 3v2l2 1 1 4h2l2 5 5 10v3h2l3 4 5 14 7 13v2h2l2 4 2 1 2 9 1 1 1 11 2 2-1 5 2 1-1 5 1 7-1 9 2 25 1-8h2l-1-4 2-1 2-4 4 5 6-7 3-4 1 4 3 1v2l-5 2-7 6h-2l-2-2h-2l1 7h-3l2 30-2-2-4-18-4-19-2-24h2v-2h-2l-2-2v-3h-4l-2 4-8 1 1-2-7-1-2-3 12 1-1-1-13-1-2-2-2 3-7-8-2-1v-3h-2l4 6 2 1v2l3 1 2 4-2 1h-12v-2l-8-1-4-2-7-2-10 1-7 1-8 1-7 1h-2l-4 1v-2l-3 1-2-2v-8l-2 1 4-10 2-1 3 1v-2h7l1 1 11-2 7-1 5-1h5l3-1 1-2 8-2 1-2 2 1 1-3h3l6 5 3 4h4l1 2h5v2l1-2-2-2 1-4-3-5-3-11-1-4-5-5-2-5 1-2h-2v-6l-5-1-1-3-4-4v-3-2l-6-1-2-5-2-2-1-5-4 1-1-4-4-1v-3l-13-1-1-4-2-1v-2l-5 2-3 1v3l-4-1-8 1-1 4-10 1-8-2v-2l-6 2-2 1h-3v2l-5 2-4 2h-2l-4 2-4-1-5 3h-2l-1 2-5 3-2 4h-2l-2 4-5 5 2 2 1 4h-2l1 3-2 2-3 6-1 5-3 1 4 3v2l-7-2h-5v2l-12 3-2 1 6 2-3 1-1 3 3 2v2h5v2h7l5 2h5 1v-2l6 2 1 2 11 2v2l4 1 3 4v2l2 1-2 4-3 5 3-1 2-2-1 5-3-1-1 6 1 4 1 5 3 3 4 1 4 8 4 6v17l2 2h-3l1 3-8 5h-2v2l-2 1-2 8v7l-4 15-9 9-4 8-1 9 3 4 3 1v-2l3-1 3-4 4-2h11l5 2 6 7 4 2v-2l4-2 4-5 3-1h10l7 3 2 4h3l2 2 3-4 2 1-3 6-5 3-6 1-5-1v-3l-2-1 2-3h-11l-5 4h-2v2l-15 3-9 5h-2l-1 3-2-2v-3l-6-1-3-1v-2l-4 1-9-2-4-6 1-9 1-4h2l1-4 6-13h2l2-5h2l1-5 2-3 2-6 2-5-1-5h2l-2-2-2-3v-4l-6-1 1 3h-6v2h-4l-1-2h-8l-2 1h-13l-12 1-2-1 1-3 8-2 6-1 7-2-2-2-2-1 3-2h-19l-7-2v-3l3-1h-8v-2h-2v3l-5 1v-2h-5l1-9 2-3 17-7 8-2h18l9 2h11v-2l3-1 1-3h2l-1-3-7-7-6-2v-2h-7v-2h-7l-5-1h-8l1 2h-6l1 4-2 1-8-2v2h6l2 1v2h-14l-5-1 2-2 3 1-1-2h-7l-2-3 2-1-2-1h-9l2-3-6 2-4 2 2-4h3v-2l-2-2 3-1-2-2 6-8-2-1v-2l4-4 1-2-3-1v-2l-4-2-2-2-3 1-1-2-2 2-5-1-3 6-4 3h-2l-1 4-1 9-3 1v3h2v20h-2l-1 6 2 1-1 2 2 1-1 4-2 4 2 1-1 5 1 3-2 5-3 5h-1l-1-5-3-1-1-3-2 2v-3h-2l1-4 2-5-2-1 3-5 4-1-1-4 1-2v-7l-3-2 3-3h-2v2h-2l3-9v-1h-2l1-4 2-6 1-7v-3l3-1 4-4 2-6 5-2 2-1 2-5 2-3h2l1-2 5 5v3l4 2 3 2v-2l-4-2 1-3 4 3v3l7 1-1-3-5-2-6-6v-5l-2-1 4-7 4-6 3-3 1-3 8-5 4-2 5-7h2l1-5 1-3 7 1 3 10 2 10 2 3-2-5 1-3 4 8 3 3 2-3 4 3-3-5h2l-4-6-1-5-2-1 1-9h-2l-1-7 2-3 1 4h3l-3-5 2-2v-5l15-8 3-2 12-3 3-2 7-2h5v2l13-3 9-1 4-1 1-2h3l1-2-3-1 10-2 4 2z" fill="#9F796D"/>
<path transform="translate(629,526)" d="m0 0 2 1v2h2l1-2 6 5 3 3-2 5-2 3v4l-4 5 2 2-2 5-3 1v2l6-4 3 1-1 2 3 1-5 2 2 1v3h3l1 4-5 1v2l3 1-2 8 1 3h-2l-3 11-1 5 2 3-1 5-2 2-2 6 1 4v6h2l2 3-1 3v3l-1 3h2l2 5 2 1 2 11h2l3 6 1 4 2 1v4l2 1-1 7 1 2-2 5h2l1-4 1 5-1 4-1 3-2 8 6 6 4 2-1 4v2h2l1-4 2 1v7l-1 3 2 1v3h-2l-1 5 1 3-1 9h2l-1 5-1 3 3 1v13h4v-3h2l1 5 5-2 1 3 3-2 1 6-1 4 2 1v5l-1 4 3 3-1 2 3-1 2 4 1 3 2 1-1 2 3 2 1-4h3v2h-2l1 12h-3l-1-2v7l2 4-2 4v10l5 1 9 4-1 2 5 5 1 3h2v3h2l-1 5h2l-1 6 2 4h-3l2 4v7l2 2v6l1 2-5 1 3 9v4h2v4l2 8v3h-7l-7-3-14-7-1-3-3-1h2v-2l-3-1-1-3h-2l-3-4-1 2-3-1-4 6-9-3-12-5-7-6 1-2 4 2-2-4 2-8-2-5v-7l1-1-1-7-2-7 2-4h-2v-2l-5 1v-4l8-2-1-4h2l-1-5h-2l2-4-3-1v-2h4v-2h-2v-2h2v-3h-2l1-4-4-7-5-4-4-5-12-21-6-15-6-23-5-27-1-2h-10l-9-6-6-9-5-13-4-21-2-29v-9l2-10 7-12 5-1 5 1v-3l-2-4 1-2h-2l1-4v2h2l3 6v6h4l2 4 2-1 2 6 3-5 2-6-2-1 1-5-1-3 2-4-2-6 1-6h2l-1-12 1-8h-2v-3l2-1 1-9 1-6 1 2 4-3h2l1-5 3-2 4 1z" fill="#D9C7C3"/>
<path transform="translate(775,424)" d="m0 0h5l-1 3h7v2h2l1-3 2 1-1 2 10 2 2 3 1-2 2 1v1h5l-1 4h-2v2l5-1 4 1-1 2 2 1v2h2v-3h2l2 5h3v3h2l1-2v3h3v2l4 2 1 2 2 6 4 1 4 3v2l2 1 1 4h2l2 5 5 10v3h2l3 4 5 14 7 13v2h2l2 4 2 1 2 9 1 1 1 11 2 2-1 5 2 1-1 5 1 7-1 9 2 25 1-8h2l-1-4 2-1 2-4 4 5 6-7 3-4 1 4 3 1v2l-5 2-7 6h-2l-2-2h-2l1 7h-3l2 30-2-2-4-18-4-19-2-24h2v-2h-2l-2-2v-3h-4l-2 4-8 1 1-2-7-1-2-3 12 1-1-1-13-1-2-2-2 3-7-8-2-1v-3h-2l4 6 2 1v2l3 1 2 4-2 1h-12v-2l-8-1-4-2-7-2-10 1-7 1-8 1-7 1h-2l-4 1v-2l-3 1-2-2v-8l-2 1 4-10 2-1 3 1v-2h7l1 1 11-2 7-1 5-1h5l3-1 1-2 8-2 1-2 2 1 1-3h3l6 5 3 4h4l1 2h5v2l1-2-2-2 1-4-3-5-3-11-1-4-5-5-2-5 1-2h-2v-6l-5-1-1-3-4-4v-3-2l-6-1-2-5-2-2-1-5-4 1-1-4-4-1v-3l-13-1-1-4-2-1v-2l-5 2-3 1v3l-4-1-8 1-1 4-10 1-8-2v-2l-6 2-2 1h-3v2l-5 2-4 2h-2l-4 2-4-1-5 3h-2l-1 2-5 3-2 4h-2l-2 4-5 5 2 2 1 4h-2l1 3-2 2-3 6-1 5-3 1 4 3v2l-7-2h-5v2l-16 4-4-2 1-3 7-3 6-2 2-1 2 1-1-3h4v2h2l-1-4h4l-4-5-2-8h3l-3-5h2l-4-6-1-5-2-1 1-9h-2l-1-7 2-3 1 4h3l-3-5 2-2v-5l15-8 3-2 12-3 3-2 7-2h5v2l13-3 9-1 4-1 1-2h3l1-2-3-1 10-2 4 2z" fill="#9F7A6E"/>
<path transform="translate(1060,1309)" d="m0 0 2 4 5 2 6 5 3 10 1 15 4 57 2 21 1 14 2 22-4 18-2 23h-29l-1-5h-2l-5-12-4-11-2-8v-12l6-27 4-24 3-28 8-54z" fill="#D0D0D8"/>
<path transform="translate(306,1293)" d="m0 0 6 1 6 30 3 9 2 11 2 9 1 10v36l-1 10-1 4-2 23v3h-2v6h-2l1 8 1 2h-2v17l-4 7v3l2-1-3 9-5 1-2-3 1-5 2-4h2l-4-7-4-4v-18l-3-4v-11l-1-3v-63l1-10-1-7-1-33 3-17 2-2z" fill="#D0D0D8"/>
<path transform="translate(634,868)" d="m0 0 1 3-1 7v18l5 20 5 9 3 15v25l4 11v8l-2 1-5 11-5 1-3-2h-3v2l-3 2v6h-5l-1-5-2-2-1-5 5-2-1-2h-6l-4-9-4-14-4-6-2-5-4-1-4 3-2-1 1-16 5-9 3-3v-3l5-5 12-20 11-27z" fill="#FCFCFC"/>
<path transform="translate(666,469)" d="m0 0 7 1 3 10 2 10 2 3-2-5 1-3 4 8 3 3 2-3 2 3 2 10 3 1 1 3-5-1 1 4h-2l-1-2-2 1v2l-4 1-9 3-4 2-1 2 4 1 5 2 3 1-3 1-1 3 3 2v2h5v2h7l5 2h5l5 4h3l7 3 1 2 2-2 5 7h-2l-1 2-2-1-1 3-2-1v2h-2l-1-1v2h3l-1 3-5-4-6 3v-2l-7-1-4-4h-7v1l-15 3v-2h-6l-2-2-1 3 7 2v1l-5 1v1h-6v-2l-11-2 4-3h2v-2l-7 1-1-5h6v-3l-4 1 2-4h-3l-1-5-1-3-4-1v-2h2l1-4h3l-1-3-5-2-6-6v-5l-2-1 4-7 4-6 3-3 1-3 8-5 4-2 5-7h2l1-5z" fill="#A17B6F"/>
<path transform="translate(757,438)" d="m0 0 20 1v2l11 1 2-1v3l5-2v3l3 1v2h-2v2l3-2h6v-2l5 1 1 3h6v3 6l3-3 3 1v2h2v2l4 1 3 5 3 3 3-1 3 9h3l-1 3h2l1 5h2l1 6 2 4 4 9-1 7 2 3v3h2l1 6 2 2 5 1 1 6-2 1v5l1 2-2 2-3 2v-2h-2v-4l-2-2 1-4-3-5-3-11-1-4-5-5-2-5 1-2h-2v-6l-5-1-1-3-4-4v-3-2l-6-1-2-5-2-2-1-5-4 1-1-4-4-1v-3l-13-1-1-4-2-1v-2l-5 2-3 1v3l-4-1-8 1-1 4-10 1-8-2v-2l-6 2-2 1h-3v2l-5 2-4 2h-2l-4 2-4-1-5 3h-2l-1 2-5 3-2 4h-2l-2 4-5 5 2 2 1 4h-2l1 3-2 2-3 6-1 5-3 1 4 3v2l-7-2h-5v2l-16 4-4-2 1-3 7-3 6-2 2-1 2 1-1-3h4v2h2l-1-4h4l-4-5-2-8 5 2v-2h2l-3-4 1-2 4-2 1-7h-2l-3-4v-2h2v2h2v-2l6-1 2-7h3l-1-5 5-3 7-2-1-6 2-3 6-1 4 1v3l4-2 7-1 1-2h2l1-3 6 1 6-3z" fill="#B28276"/>
<path transform="translate(638,569)" d="m0 0h2v2l4 1-5 1v2l3 1-2 8 1 3h-2l-3 11-1 5 2 3-1 5-2 2-2 6 1 4v6h2l2 3-1 3v3l-1 3h2l2 5 2 1 2 11h2l3 6 1 4 2 1v4l2 1-1 7 1 2-2 5h2l1-4 1 5-1 4-1 3-2 8 6 6 4 2-1 4v2h2l1-4 2 1v7l-1 3 2 1v3h-2l-1 5 1 3-1 9h2l-1 5-1 3 3 1v13h4v-3h2l1 5 5-2 1 3 3-2 1 6-1 4 2 1v5l-1 4 3 3-1 2 3-1 2 4 1 3 2 1-1 2 3 2 1-4h3v2h-2l1 12h-3l-1-2v7l2 4-2 4v10l3 1h-5l-4-3-10-6v-2l-2-1-1-3-5-2-3-5v-2l-4 1-1-9 2-1 1 2 3-1v-2h2l-2-5-6-5h-2l2 2-5 5-2-4 2-7-2-5 1-2-2-1v-2h-2v-3h2v-6-2l-2-5h2v-3l-5-1-1-3 6-1h-7v-3l2-2-3-2v-8l5-1v2h3l-2-3v-3l-2-1v-3l2-1-1-4h2l-2-4 1-2h-2l-3-6h-2v-7l-1-7h3v-5l1-1-2-2 2-1-3-3 2-1-2-1 2-5-2-8-3-1-2 1v-3l3-2-2-4v-3l-1-2-1 2h-2l1-7-1-1v-6l-3-2-2-6-1-2-2-5v-1l-6-1-2-8h-2l1-5 2-1 1-2v-2-2h3v-2l4-4 1-6 1-9-1-4 2-1h-3v-3l2-2-1-2h2l1-5 2-1 2 1z" fill="#D2B9B1"/>
<path transform="translate(367,1030)" d="m0 0 1 3-5 10-6 7-1 5 3-1-1 5-1 4v12l-3-1v5 4l-4 8-3 14-1 7h-2l-1 14-3 14-2 6-1 9-3 10-1 9-3 3-2-3-2-11-3 1-2-1-3 10-5 11-6 12-3 14-4 5-2 5-1 9h-2l-2 6-1 9-2 4-4 4-1 10-5 8-3 2v8l-3 1-2 7-5 13-2 7h-2l-1 9-3 8-5 18-1 5h-2l1 5-4 11v6l-3-1v9l-2 3h-2v9l-1 3-2 1-1 7-3 4-1 10-6 15-2 8-3-1-1 6-2 2 2-10 8-26 14-41 14-47 13-40 16-43 11-30 9-31 12-44 13-38 11-25 8-15 12-19z" fill="#FCFCFC"/>
<path transform="translate(629,526)" d="m0 0 2 1v2h2l1-2 6 5 3 3-2 5-2 3v4l-4 5 2 2-2 5-3 1v2l6-4 3 1-1 2 3 1-5 2 2 1v3h3v2l-3 1v-2h-2v5h-3l-3 6v3h-2v3h3l-2 4 2 1-1 9-1 7-3 3h-2v2h-3l2 5-2 1-4 6h2l3 8-1 5 3 2 2 6 3 6-1 8h2v3l1 2 1 6-2 2 2 2-2 1-1 4-5 1-3 3-4-1-4-2-2-5-3-2h2l-4-5-1-8-1-5 1-4h-2l-1-11v-8l1-2h-2v-2h3l1-9v-11l3-9-2-1 1-5-1-3 2-4-2-6 1-6h2l-1-12 1-8h-2v-3l2-1 1-9 1-6 1 2 4-3h2l1-5 3-2 4 1z" fill="#D0D0D7"/>
<path transform="translate(851,992)" d="m0 0 5 1 9 9 7 8 11 12 5 5 10 9 12 11 11 8 8 8v13l-4 4h-8l-10-6-16-11-10-6-17-8-15-5-5-3-5-2v-2h-2l-8-8 1-6 2-3h2l2-4 4-5 5-10 3-3z" fill="#D0D0D8"/>
<path transform="translate(733,718)" d="m0 0h5v3h8l4 1 3-1 6 1h3l12 2 11 5 12 4h14l4 4v6l-4 2-3-1v-3l-9 4-7 4-10 5-3 2-2-1v2l-14 4-6-1v2l-6-1-9 1h-8l-10-4-3-4 1-8 8-1-1-1-5 1-3-2v-2l-10 3-11 6-4 3-1 2-5-1-3-9-3-6-1-8 1-2 9 1 4 3 8-1 9-4 5-1v-2l7-1 1-3 6-1z" fill="#B28276"/>
<path transform="translate(1152,1170)" d="m0 0h2l1 3v21l-4 28-9 48-10 53-7 40-6 47-4 44-1 16-1 30h-12l-1-9 1-10v-29l2-20 3-20 4-16 2-12 1-1 1-14 3-12 4-27 3-13 3-19 2-13 2-5 3-17 4-24 2-10 5-27 5-23z" fill="#D0D0D8"/>
<path transform="translate(589,587)" d="m0 0 1 2h2l3 6v6h4l2 4 2-1 2 6 2-4 1 3v10l-2 9h-3v2h2l-1 34 4 9 1 17 2 16-5 3h-7l-9-6-6-9-5-13-4-21-2-29v-9l2-10 7-12 5-1 5 1v-3l-2-4 1-2h-2z" fill="#D5C5C3"/>
<path transform="translate(775,424)" d="m0 0h5l-1 3h7v2h2l1-3 2 1-1 2 10 2 2 3 1-2 2 1v1h5l-1 4h-2v2l5-1 4 1-1 2 2 1v2h2v-3h2l2 5h3v3h2l1-2v3h3v2l4 2 1 2 2 6 4 1 4 3v2l2 1 1 4h2l2 5 5 10v3h2l3 4 5 14 7 13v2h2l2 4 2 1 2 9 1 1 1 11-1-2-3 1v-2h2l-1-2-4 2-1-5-2-1 1-4-3-4-2-9-5-9-6-11-3-7-3-5-1-6 1-3h-4l-1-4-2 1v-5h-2v-4l-4 1-3-3v-2l-2-2-6-4-2-4-5-2-5-3-1 2-2-3 1-1-6-1-2-3-4-1v2l-9 2v-2h2v-2l-4-1-1-2h-4-7l-5-2v-2h-19v3l-2 2h-3l-5 1-2-1-1 2h-2l-1 3-8 1-4 2v-3l-9-1-1 9-10 5h-2l1 5h-3l-2 7-6 1v2h-2v-2h-2l3 4v2h2v7l-3 3-2 1 2 4-3 1-4-6h2l-4-6-1-5-2-1 1-9h-2l-1-7 2-3 1 4h3l-3-5 2-2v-5l15-8 3-2 12-3 3-2 7-2h5v2l13-3 9-1 4-1 1-2h3l1-2-3-1 10-2 4 2z" fill="#9B6D65"/>
<path transform="translate(599,930)" d="m0 0 3 1-5 9-4 25-3 32-4 28-1 12v21l5-1 4-2v-2l5-4h2l2-4 9-6h2l-2 6-4 4h-3v4l-3 3-4-1-4 2-3 7-5 4-1 3-11 7-5 4-6 3-5 2-4-1-2 2-2-5v-2l-1-3h-4l-1-1 1-8h-2v-6l4-5v2l3-1 3-7 3-4h2l2-4 8-8 4-9 3-15 5-16 1-2 1-13 2-12 2-10-3-2-3 2h-4v-2l-11 3-4 2-1-2 9-4 14-4 8-2 1-4 1-7 1-4z" fill="#D0D0D8"/>
<path transform="translate(742,1077)" d="m0 0h1l-1 8-4 17-4 28-8 41-3 27-4 61-2 59-5 65-3 37-1 54-2 26h-1v-20l1-61 3-62 3-45 1-48v-72h2v-15l2-12 1-5v-23l-2-9-1-6 3-5 8-5 3-9 4-2 1-1 2-13 3-6z" fill="#D0D0D8"/>
<path transform="translate(624,632)" d="m0 0h5l2 6h2v5l2 2v2l3 2v6l1 5-2 3h2l1-3 3 2-1 5 2 5h-4v11 3l-1 3 2 1-1 4-2 1-1-4-4 3h-4l2 1v3h2v-3l2 1-1 4 1 4-2-1-1 8h3v-2h-2v-2h3l1 5-5 1 2 3 3 1h-2v6l-4-1 2 6 3 3-2 2 2 2-4 3h2v4h2l-1 3h-2v-4l-4 1 2 2-7 3v6l2 2h-2v2l3-1 2 8v9l3 3-1 2h-3l-7-17-6-23-5-27-3-4 3-2-2-15-1-17-4-9 1-19h1v6h2l1 4-1 1 1 7 2 6 2 4 2 1 1 6 8 2h2l1-3h5l1-5v-3-2-6l-2-1 2-3h-2l-1-5 1-4-4-6-4-8z" fill="#D1D0D7"/>
<path transform="translate(458,1050)" d="m0 0 3 1 6 10 3 4 5 15 4 10 1 7 3 1 3 3 1 8 3 5 3 9 3 11 4 11 1 10v8l-6 10-3 3h-2l-1 5-5 4-2 1-3 5-3 3-3 5-4-1 2-11 4-6 1-10 3-3 1-12 1-5-1-9-3-8-3-13-3-8-4-31-6-16-3-12z" fill="#D0D0D8"/>
<path transform="translate(843,624)" d="m0 0h2v6l2 1 1 2h2v3l8-1 1 1v6l3 8-1 2 3 3-2 5h-2l-1-5-1-3-3 3-1 2h3l3 4 2 2-3 1-5 12-1 1-7 1-5 10v3h-4l-4-4v-2h-3v-3l-5-1-2-1v-3h2l-1-5 1-3h-5l-4-4-2-10-1-2h3v-2h2v-2l5-2 7 1-1-5 4-6 4-1-1-3 3-5 2-2z" fill="#D2B8B0"/>
<path transform="translate(757,438)" d="m0 0 20 1v2l11 1 2-1v3l5-2v3l3 1v2h-2v2l3-2h6v-2l5 1 1 3h6v3 6l3-3 3 1v2h2v2l4 1 3 5 3 3 3-1 3 9h3l-1 3h2l1 5h2l1 3-2 1-2-1v-4l-4-2v-2h-2l-3-3v-2h-3l-5-9-6-1-3 1-1-7-3 1-5-5-1-3-4 1-1-3-8 1-2 1v-2h-6v-2l-7-1-6 1 1-3h-7l-3-1-1 4-5 1v2l-7-1-2 5-7 1-2-1v-2l-5 2-1 6-6-1h-4l-4 4h-4v6l-8 1-4 6-4 8 1 2h-3v2h2v2h-2v2l6-1 1 5h-2l1 3-2 2-3 6-1 5-3 1 4 3v2l-7-2h-5v2l-16 4-4-2 1-3 7-3 6-2 2-1 2 1-1-3h4v2h2l-1-4h4l-4-5-2-8 5 2v-2h2l-3-4 1-2 4-2 1-7h-2l-3-4v-2h2v2h2v-2l6-1 2-7h3l-1-5 5-3 7-2-1-6 2-3 6-1 4 1v3l4-2 7-1 1-2h2l1-3 6 1 6-3z" fill="#9F796D"/>
<path transform="translate(733,718)" d="m0 0h5v3h8l7 3v1h-5v4l-3-1 2 8 22-2 16 2 7 1h14v3l-20 1-15 1h-4l-2 3h-6l-1-2h-3l-4-1-4 1v2l-5-1 1-2-7-1-1 4-4-1 1-2h-3v2l-5 1-3-2v-2l-10 3-11 6-4 3-1 2-5-1-3-9-3-6-1-8 1-2 9 1 4 3 8-1 9-4 5-1v-2l7-1 1-3 6-1z" fill="#9E776C"/>
<path transform="translate(865,852)" d="m0 0 7 1 3 2v4l3 1 2 6v8l-4 15-1 2h-2l-1 13-5 21-2 10-6 16-5 13-6 10-1 3-5 4-1 3-2 1-2 4-8 4-2-1 1-5 2-1 3-6h2l1-4 1-7 6-8-2-1 1-3 4-1 1-7 2-2 1-5 3-3 2-7h2l1-7 4-16 2-10z" fill="#905B59"/>
<path transform="translate(835,528)" d="m0 0h4l6 5 3 4h4l1 2h5l1 3 2 1 1 5h2l2 4h-4l1 3-4-2-8-3 2-1-1-2-2 3h-2l-2-6-2 2-8-4 2 4-4-1v3l5 2-1 3-6-4v2h-3l-1 4h-14l-1-2-5 2v3l-5 1-8 1-7 1h-2l-4 1v-2l-3 1-2-2v-8l-2 1 4-10 2-1 3 1v-2h7l1 1 11-2 7-1 5-1h5l3-1 1-2 8-2 1-2 2 1z" fill="#9F796E"/>
<path transform="translate(666,469)" d="m0 0 7 1 3 10 2 10 2 3-2-5 1-3 4 8 3 3 2-3 2 3 2 10 3 1 1 3-5-2-3-3-2 2-2-5-5 2v2h-2v2l-5 1v2l-8 1-5 1-10 6-8-1 4-8h4v-3l2-1v-3l-4-1-4 4-6 5-1 5h-1v-5l-2-1 4-7 4-6 3-3 1-3 8-5 4-2 5-7h2l1-5z" fill="#8E5857"/>
<path transform="translate(708,673)" d="m0 0h1l2 10 5 3v-2l3-1 3-4 4-2h11l5 2 6 7 4 2v-2l4-2 4-5 3-1h10l7 3 2 4h3l2 2 3-4 2 1-3 6-5 3-6 1-5-1v-3l-2-1 2-3h-11l-5 4h-2v2l-15 3-9 5h-2l-1 3-2-2v-3l-6-1-3-1v-2l-4 1-9-2-4-6v-6l2 2 1 5 4 1-3-3v-7z" fill="#9C6F66"/>
<path transform="translate(586,443)" d="m0 0 4 1-3 3-5 3h-9v2h2l-1 3-2 3v1l10-7v3h-2v3l-5 2-3 8 2 2-3 7h1 3v2l3 1-2 1-2-1-1 6-2-2-1 4-1 2h2l1-2 1 7-1 6 3 1h-2l-2 8-6-2v-3l-2-1 1 7-3 8-3-4-4-17-1-11 3-13 2-6 3-11 7-9 9-1h2l1-3z" fill="#966862"/>
<path transform="translate(643,865)" d="m0 0h1l1 15 2 7 6 7 9 4v3l4 1 5 5v3l-2 1-1 6 1 4-3 7h3v4l7 9 3 6v2h2l2 4-3 5 3 4-1 2-5-4-7-12-3-2-2-5-5-8-3-2-3-7-8-15v-3h-2l-2-14-1-5v-18z" fill="#A17B70"/>
<path transform="translate(670,583)" d="m0 0h10l2 2 9 1v2l5 1 14 7 4 5-1 3-6-1-1-5-10-6v11l-2 1h-6v3l-4 2h-14l-7-2v-3l3-1h-8v-2h-2v3l-5 1v-2h-5l1-9 2-3 17-7z" fill="#9E776C"/>
<path transform="translate(789,426)" d="m0 0 2 1-1 2 10 2 2 3 1-2 2 1v1h5l-1 4h-2v2l5-1 4 1-1 2 2 1v2h2v-3h2l2 5h3v3h2l1-2v3h3v2l4 2 1 2 2 6 4 1 4 3v2l2 1 1 4h2l2 5 5 10v3h2l3 4 5 14 7 13v2h2l2 4 2 1 2 9 1 1 1 11-1-2-3 1v-2h2l-1-2-4 2-1-5-2-1 1-4-3-4-2-9-5-9-6-11-3-7-3-5-1-6 1-3h-4l-1-4-2 1v-5h-2v-4l-4 1-3-3v-2l-2-2-6-4-2-4-5-2-5-3-1 2-2-3 1-1-6-1-2-3h-10l2-4-5-4-6 1-7-2-3-1 5-1 2 1-1-3 1-2h-3l1-5 1 2h2z" fill="#8F5957"/>
<path transform="translate(791,841)" d="m0 0h6l-8 8h-3v2l-11 4h-3l-1 2-12 3-2 5-6 2h-7l-9 2-6-5-4-11v-4h-3v-2h13l4-1h1v-1h13v1h11l19-3z" fill="#9F7A6E"/>
<path transform="translate(668,848)" d="m0 0h3v3l5 2 3 5-2 1 2 1-1 3 2 2v3l5 2v2h-2v2h2l1 6v5h2v3l4 2 2 5h-3v2l3 1 1 4h2l2 6 1 2 5 2v3l2 1-5-1-8-5v-2l-3-1h2v-2l-3-1-1-3h-2l-3-4-1 2-3-1-4 6-9-3-4-4 3-1-2-1 2-8-1-1-1-9v-7l2 1 1 2-1-5 1-5v-2l2-4h5l-3-1-2-1z" fill="#D1B5AD"/>
<path transform="translate(713,570)" d="m0 0h4v2h2l3 4 1 7h4l4 4 4 2 1 4h2v9l1 2-2 7-1 3h-2l-1 4-3 1v-2l-4 1-2-5-5-1 1-12-4-1-1-4h-3l1 4-7-4-12-6-3-1v-2h-9l-8-3v-1h18l9 2h11v-2l3-1 1-3h2l-1-3-4-4z" fill="#9F796D"/>
<path transform="translate(775,424)" d="m0 0h5l-1 3 4 1-3 2-16 4-5-1v4l-8 2-6 2 1-3-9 1-5 1h-4l-1 2-6 1-6 4-5 1v2l-5 2-2 6-5 1-3 3-4-2-1 2 2 3 2 1 2-2v2h2v2l4 1-7 1-2 2 3 6 1 3h2v7l-3 3-2 1 2 4-3 1-4-6h2l-4-6-1-5-2-1 1-9h-2l-1-7 2-3 1 4h3l-3-5 2-2v-5l15-8 3-2 12-3 3-2 7-2h5v2l13-3 9-1 4-1 1-2h3l1-2-3-1 10-2 4 2z" fill="#8F5957"/>
<path transform="translate(650,353)" d="m0 0h3v4h-3l1 3 4-2 1-2 4-2 3-1v2h-2l-2 4h-2l-1 3h-2v2l6-4h2l-1 4-6 2-1 5v3l-6 2-4 1-5-1-1 3-7 1-1 4h-2v2l-5 2-6 2 3 1-5 2v2l-10 7-6 4-1 2h4l-1 4-3-1-5 3-5 6-3 3 1-5 4-8 1 3 2-3-1-3 8-9 4-5 7-6 2-6 3-1 1-2-2-1 5-6h2l1-3 7-1 1-3 9-3zm-1 8m-1 1m-1 1m-17 4v2l-3 1 9-1-4-2zm6 0m4 1m11 1m-10 2-1 2 3-1zm-9 2 1 3 2-1v-2zm-5 6m-17 11-1 3h3l-1-3z" fill="#926561"/>
<path transform="translate(641,799)" d="m0 0 7 6 4 5v3l3 1h-4v3l3-1 1 2h-2v2h-2v2h2v2h-4v2l4 1-3 4h2l1 5h-2l1 4-8 2 1 3h4v2h2l-1 5 2 7 2 8-2 1-1 5 2 1 1 5-2 8 2 3h-4l-5-5-1-5-1-14-1 3v18l2 9v10h2l4 9-1 2-3-5-3-3-4-10-2-4-1-8v-18l4-10 2-10 1-11v-32z" fill="#E5E8ED"/>
<path transform="translate(818,577)" d="m0 0 16 2 13 5 4 4-2 1-15-7-9-2h-7l5 1 12 2 2 2 5 2 3 2v9h-8l-1 2-2-1 2-4 1-3h-2v-2l-8-2-1 9-2 3-4 1h-12l-4-6-1-5h-2v4h-3v4l3 1v2l-8 2-1-2h2v-3l-7 1 2-6 1-5h4l2-5 5-2 6-3z" fill="#A27C70"/>
<path transform="translate(638,569)" d="m0 0h2v2l4 1-5 1v2l3 1-2 8 1 3h-2l-3 11-1 5 2 3-1 5-2 2-2 6 1 4v6h2l2 3-1 3v3l-1 3h2l2 5 2 1 2 11h2l3 6 1 4 2 1v4l2 1-1 7 1 2-2 5h2l1-4 1 5-1 4-3 9h-2v2h-2v-7l1-1-2-2 2-1-3-3 2-1-2-1 2-5-2-8-3-1-2 1v-3l3-2-2-4v-3l-1-2-1 2h-2l1-7-1-1v-6l-3-2-2-6-1-2-2-5v-1l-6-1-2-8h-2l1-5 2-1 1-2v-2-2h3v-2l4-4 1-6 1-9-1-4 2-1h-3v-3l2-2-1-2h2l1-5 2-1 2 1z" fill="#D3B9B1"/>
<path transform="translate(819,453)" d="m0 0 10 4 2 1 1 4 6 2v2l2 2-1 2 3 1v2l4-1v4h2l1 4 2-1v5h4l1 9 3 5 5 11 6 11 3 6 2 8 2 2 1 3-2 3 4 2-1 4 5-3v3l1 1v3l3 1-1 5 2 1-1 5 1 7-1 9 2 25 1-8h2l-1-4 2-1 2-4 4 5 6-7 3-4 1 4 3 1v2l-5 2-7 6h-2l-2-2h-2l1 7h-3l2 30-2-2-4-18-4-19-1-13 1-1 1-14-1-8-3 1v-4l-5-1-3-10-2-2-2-12v-5l-5-1-2-1 1-4-3-1v-7l-2-1v-2h-2l-1-5 1-2h-2l-1-5h-2v-3h-2v-2l-2-1v-3h-2l-1-5h-2l-1-3-2 1-2-10h-2l-1 2-6-6-1-3-3-1v-2h-2l-1-2-3 1-2 1-1-4z" fill="#9A6D65"/>
<path transform="translate(626,515)" d="m0 0 4 4-2 2v2 4h-2l-1 2h-3l-2 5-4 3h-2l-1 4-1 9-3 1v3h2v20h-2l-1 6 2 1-1 2 2 1-1 4-2 4 2 1-1 5 1 3-2 5-3 5h-1l-1-5-3-1-1-3-2 2v-3h-2l1-4 2-5-2-1 3-5 4-1-1-4 1-2v-7l-3-2 3-3h-2v2h-2l3-9v-1h-2l1-4 2-6 1-7v-3l3-1 4-4 2-6 5-2 2-1 2-5 2-3h2z" fill="#A07A6F"/>
<path transform="translate(696,592)" d="m0 0 6 2 5 4 1 3-1 2h6l-2-8-1-2 5 2 1 4 4 1 1 5-3 9-4 5h-2v2h-2v2h-4l-1-2h-8l-2 1h-13l-12 1-2-1 1-3 8-2 6-1 7-2-2-2-2-1 3-2h-5l4-2v-3h6l1-6z" fill="#A17B6F"/>
<path transform="translate(600,638)" d="m0 0 3 3 1 3v20l3 8v14h-5l-1-4h-3l-3-6 1-5h-11l-5-4v-7l5-12 3-5 9-3z" fill="#9C6F66"/>
<path transform="translate(618,625)" d="m0 0h2l-2 7v2h2v7l3 2-1 2 2 1-1 3h7l1 2-1 8h2v3l1 2 1 6-2 2 2 2-2 1-1 4-5 1-3 3-4-1-2-3h2l-3-5-3-9-4-9 1-5-2 1v-11l1-3 3-1h2l2-9z" fill="#E7EAEF"/>
<path transform="translate(624,583)" d="m0 0 4 1 2 4-1 4 2 2h-2l2 8v5l-3 3h-2v2h-3l2 5-2 1-4 6h2l3 8-1 5 3 2 2 6 2 4-3 1-4-1-1-6-3-2 1-7h-2l-1-4 3-5h-2l-3 12-2 2-4-1v13l2-1-1 6 4 9 1 6 2 1-1 2 2 1 1 4-4 1-2-5-3-2h2l-4-5-1-8-1-5 1-4h-2l-1-11 2-9 1-6h2l1-2 4 1-1-4 2-4-1-5 3 1v-5l3-1v-7l2-4z" fill="#D0CFD7"/>
<path transform="translate(796,581)" d="m0 0h5l-1 2h-4l-2 5-4 1v5h-2l-1 5 7-1-1 4 8-1v-2l-4-1 1-4h3v-4h2l5 10h12l4-1 2-5 1-6 6 1 2 1v2h2l-1 4-2 3 8-2 3 1-1-4 1-4 8 2v2h3v2h-5l-1 3-5 2-2-1v2h-8l-4 2-3-1h-3l1 2-4-1-5-1v2l4-1v2l-13 1v4l5 4v2l-14-2-7-2-4-1-5-2v-2l7-3v-2h-5v-7l-4-1v-3l5-3 2-2 4-3h2v-2z" fill="#A17B6F"/>
<path transform="translate(725,573)" d="m0 0 2 4 3 3 4 1 4 8 4 6v17l2 2h-3l1 3-8 5h-2v2l-2 1-2 8v7l-4 15-9 9-4 8-2 3-1-1-2 4-1 1v7l5 5-6-1-3-5v-7l1-4h2l1-4 6-13h2l2-5h2l1-5 2-3 2-6 2-5-1-5h2l-2-2-2-3v-4l-6-1 1 3-4-2h2l2-4 4-4 4 2 3 4h3v2l3-2 1-3h2l2-10-1-4 1-7h-2l-2-4-6-3-1-3-4-1 1-4-2-4z" fill="#B28276"/>
<path transform="translate(507,994)" d="m0 0h2v2h2l7 9 5 6 3 7 6 4 3 6 3 5-1 1 1 9-8-1-1 1h-7l-2-5-4-2-6-8-1-9v-8h2l-4-13z" fill="#D0D0D8"/>
<path transform="translate(736,741)" d="m0 0h8l-1 2 4 2-1-3 8-1 2 2 2-1 3 2 6 1v-2h11l4-1-1 3h-5v3h-2v2h-3l-1 3-10 2-11-1-2-1-4 2 3 2-4 3-2 1h-10l-8-5-1-7 2-3 7-1 1-3 1 2 3 1z" fill="#B18276"/>
<path transform="translate(786,900)" d="m0 0 3 1v3h-2l-1 5-4 1 2-4-5 1 4 10 2-1 1-2 4 1 1 5-1 3v3l-1 1h-8v3l-7 1-5 2-2-1h-11l-3-3 1-5h2l1-2 2 1v-8l2 1v4l4-1 1-2h2l-4-5 1-3 4-1-2-2 13-1z" fill="#D2B8B0"/>
<path transform="translate(865,852)" d="m0 0h1v7l4-1 1 10-2 1-2-3-1 46-6 22-3 8-4 12-2 5-1 12-3 6-5 4-1 3-2 1-2 4-8 4-2-1 1-5 2-1 3-6h2l1-4 1-7 6-8-2-1 1-3 4-1 1-7 2-2 1-5 3-3 2-7h2l1-7 4-16 2-10z" fill="#A37C70"/>
<path transform="translate(656,815)" d="m0 0 5 2 3 3-1 4-1 5 1 9-5-1-3-1v2h3l1 7 1 2h-2l-1 7 2 1-2 3 2 4h-3v2h2v14l2 1-2 9h2l-1 5h-3l1 2-5-1-4-4 1-2 4 2-2-4 2-8-2-5v-7l1-1-1-7-2-7 2-4h-2v-2l-5 1v-4l8-2-1-4h2l-1-5h-2l2-4-3-1v-2h4v-2h-2v-2h2v-2l3-1z" fill="#D0CFD7"/>
<path transform="translate(604,645)" d="m0 0h1v6h2l1 4-1 1 1 7 2 6 2 4 2 1 1 6 4 1 4 2-1 8v2l2 1 1 6h-2l-1 2-4-1 3 4-1 1 4 2v2l2 1-3 1 2 1v2h-2l-1 2-2-3h-3v2l-2 1-1 5h-2l-3-13-2-2 3-2-2-15-1-17-4-9z" fill="#D8C9C6"/>
<path transform="translate(479,1273)" d="m0 0 5 3 3 2 3 10v14l2 4-1 11-3 7-1 3-5 1-2-4-2-8v-14l-1-11 2-6-1-10z" fill="#D0D0D8"/>
<path transform="translate(589,587)" d="m0 0 1 2h2l3 6v6h4l2 4 2-1 2 6 2-4 1 3v10l-2 9h-3v2h2v10l-2 4-2-5-8 4h-5l-2 5-5 12-1 7h-1v-10l3-9 4-8 7-2 6-3 1-3-2-9 3-3 1-4-2-4-1-1-2 8-7-6-6-7-2-6 5-1 5 1v-3l-2-4 1-2h-2z" fill="#C6ADA9"/>
<path transform="translate(707,734)" d="m0 0h5l-1 3 8-1h18l9 1 23-3 16 2 7 1h14v3l-20 1-15 1-2-2-4-1v2h-48l-16 1v2l-8-1-2-5h-2v-2l6-1h8z" fill="#855"/>
<path transform="translate(699,840)" d="m0 0 9 3-1 2 5 5 1 3h2v3h2l-1 5h2l-1 6 2 4h-3l2 4v7l2 2v6l1 2-5 1 3 9v4h2v4l2 8v3h-7l-5-2 4-3 1-1-2-1-2-7 1-2h2l-1-3v-1l-3-1-1-9 1-4 1-2h-2v-2l2-1-2-1 1-9-3-1 1-2 1-4 1-5h2v-2l-5-2 2-2-3-1v-4l-7-5z" fill="#D2B9B1"/>
<path transform="translate(677,1023)" d="m0 0h6l3 2 9 3 7 1 5 2 7 2 3 5 3 14-4-2-4-5-6-3-10 1-8-2-7-7-4-5-1-5z" fill="#D0D0D8"/>
<path transform="translate(676,586)" d="m0 0 15 1 10 4 9 5 4 5-1 3-6-1-1-5-10-6v6l-3 4-6 2h-8l-4-2-3-10-7 4-2 3 2 1h-8l-2-1 2-4 6-3h3v-2l5-3z" fill="#2F152E"/>
<path transform="translate(733,718)" d="m0 0h5v3h8l7 3v1h-5v4l-3-1 2 8h6v1l-9 1-10-1h-23v-2l-2-1-1 2-4-2 7-3h5v-2l5-2h3v-3h2l1-3 6-1z" fill="#9C6F66"/>
<path transform="translate(880,856)" d="m0 0 3 2v13l-3 17-1 15-3 9-6 16-5 17-8 20-5 10-3 2-1-4 8-16 3-10 5-12 7-31 2-13h2l4-17 1-2z" fill="#CEC7CC"/>
<path transform="translate(567,450)" d="m0 0h5l-2 4-2 11h2l-1 6v11l-4 3-1-3-1 4 2 4-1 3h-2l1 5-2 1 1 4v8l-2-3-1-5-2-1h2l-4-8v-18l3-8 3-11z" fill="#835254"/>
<path transform="translate(665,539)" d="m0 0h2v2h20l1-2 8 3 5 2v2h3l4 5v2l-2 1-1 3h-2l-1-2-4 1-4-3h-7l-4 1-5-3-5-1h-16v-2h3v-2h3v-2h3v-2l-4-1z" fill="#280E29"/>
<path transform="translate(740,845)" d="m0 0h13v1h27l-2 4-9 3-12 3h-4v2l-4-1-1 2-4 1-10-2-1-3-3-1v-4l-3-2 12-2h1z" fill="#9C6F66"/>
<path transform="translate(609,574)" d="m0 0 3 3 2 5 3-1 1 2h-2l-1 3h-2l1 6v2l3 1-3-5 5-5 3-1v10l-2 3 2 1-1 1-1 7-2 1-1 5-2 1 1 5-2 4v2l-4-1-1 3-2-1-1 13h-1l-1-6 1-2h-2v-2h3l1-9v-11l3-9-2-1 1-5-1-3 2-4-2-6z" fill="#D8C6C2"/>
<path transform="translate(823,583)" d="m0 0 11 3 8 6 1 4h-5l-1-3-2-1v-2l-8-2-1 9-2 3-4 1h-12l-4-6-1-5h-2l-1 2v-3l8-4 14-1z" fill="#30152E"/>
<path transform="translate(862,354)" d="m0 0 6 1 14 7 13 8 10 7 14 14 4 5 2 6 5 10v7l-1-2-3 1-4-2-1-5-1-3h3l3 7-1-6-2-3v-3l-4-1v-2l-4-2-1-2 5 2-4-7-9-10-5-3h-3l-1-3-4-2-12-7-8-3 4-2-8-2v1h-6l1 3h-4v-3l-4-1v2h-2v-2l-3 1-1 2 12 3v2h-4v-2h-9l-1 2-1-3-6-2 1-3 3 1v-2l-2-1 6-2v2l1-1h13l-3 2 4-1 1-1z" fill="#744E53"/>
<path transform="translate(626,520)" d="m0 0h6v3l4 2 3 2v-2l-4-2 1-3 4 3v3l3 1v4h-2l1 2 3 1 3 4-1 4h3v3h2v3l-5 1v4l7-1v2l-4 2 1 2h-2l-1 3-10 1 2-3-6 2-4 2 2-4h3v-2l-2-2 3-1-2-2 6-8-2-1v-2l4-4 1-2-3-1v-2l-4-2-2-2-3 1-1-2-2 2-1-4z" fill="#9C746A"/>
<path transform="translate(658,897)" d="m0 0 4 1v3l4 1 5 5v3l-2 1-1 6 1 4-3 7h3v4l7 9 3 6v2h2l2 4-3 3-4-6-2-4-4-2 1-5-4-1-1-5-4-8-3-4v-5h-2l-1-4v-6l-2-5v-2z" fill="#B38377"/>
<path transform="translate(654 1e3)" d="m0 0 4 1 13 9 3 4v2l-10 6-5-1-8-3-3-3-5-1 2-5z" fill="#D0D0D8"/>
<path transform="translate(752,721)" d="m0 0 7 1h3l12 2 7 3-1 5 2 1h-3l-9-1-4 2v1l-5 1h-14l-3-5 1-5 1 3h2v-4l4-1-2-2z" fill="#B28276"/>
<path transform="translate(581,666)" d="m0 0 1 3 3 1 11 1v5l2 6h3l1 3h4l1-12h1l1 17 2 16-5 3h-7l-2-4 2-3-1-5-1-7 3-1v-2l-4 2v-6l-4-9v-2h-4l-2 4-6-6z" fill="#C6A196"/>
<path transform="translate(726,631)" d="m0 0 2 2v7l-4 15-9 9-4 8-2 3-1-1-2 4-1 1v7l5 5-6-1-3-5v-7l1-4h2l1-4 6-13h2l2-5h2l1-5 2-3 2-6 1-4h2z" fill="#A67D71"/>
<path transform="translate(662,537)" d="m0 0h2l1 3-1 1 2 1v2l2 1h-2l-1 2v-3h-2v2h-3v2h-3v2l2-1h14l9 3v3l-10 2v-2h-6l-2-2-1 3 7 2v1l-5 1v1h-6v-2l-11-2 4-3h2v-2l-7 1-1-5h6v-3l-4 1 4-4 3-2h6z" fill="#875354"/>
<path transform="translate(638,569)" d="m0 0h2v2l4 1-5 1v2l3 1-2 8 1 3h-2l-3 11-5 15h-2v4h-2v2l2 1-1 2-3 2v3h2l2 4-6 1-2-8h-2l1-5 2-1 1-2v-2-2h3v-2l4-4 1-6 1-9-1-4 2-1h-3v-3l2-2-1-2h2l1-5 2-1 2 1z" fill="#D9C8C4"/>
<path transform="translate(679,869)" d="m0 0h5l1 3h-2v2h2l1 6v5h2v3l4 2 2 5h-3v2l3 1 1 4h2l2 6 1 2 5 2v3l2 1-5-1-8-5v-2l-3-1h2v-2l-3-1-1-3h-2l-3-4-1 2h-2l-1-3 3-1-2-5h2l-2-2v-2l-2-1 1-2-3-1 1-4h-3l-1-5 1-2 4 1z" fill="#D2B8B0"/>
<path transform="translate(622,534)" d="m0 0h5l1 3 2 2 1 3 2 2-3 1-2 4-2 2 1 2-3 3-4-1-1 4-2 2-4-1-1-5 1-5-1-10 1-5 1 2 6-2z" fill="#E7E9EF"/>
<path transform="translate(687,848)" d="m0 0 4 1 1 2 1-2 5 1 1 4 2 2-4 1h6v7h-2l3 3-1 5h-3l2 1v2l-6-1v2l-3 1-2-4v-2l-5-2 2-1 1-5-3-2-1-4 2-2v-3l2-1-2-1z" fill="#D1D0D7"/>
<path transform="translate(588,672)" d="m0 0h4l5 12v4l3-1v2l-2 2 2 7-1 5-1 3 1 2-5-2-5-5-4-5-4-9 1-3 3 5 6 2-1-4h-2l-2-5v-3h2z" fill="#D4CACC"/>
<path transform="translate(781,428)" d="m0 0h3v4h3v5h-3l8 2 4-1 6 4-2 4h5v2l-9 2v-2h2v-2l-4-1-1-2h-4-7l-5-2v-2h-18l-2-2h2v-4h7l14-4z" fill="#9B6D65"/>
<path transform="translate(780,742)" d="m0 0 2 1-1 2h-5v3h-2v2h-3l-1 3-10 2-11-1-2-1-9 1-3-3v-5l5-1 7 1v2l5-1 3-1h4l8-1v-2h11z" fill="#C5A095"/>
<path transform="translate(579,608)" d="m0 0 4 1 5 6v4h-2l-2 10-3 10-2 12h-3l-1-25 2-11z" fill="#9E6F67"/>
<path transform="translate(641,799)" d="m0 0 7 6 4 5v3l3 1h-4v3l3-1 1 2h-2v2h-2v2h2v2h-4v2l4 1-3 4h2l1 5h-2l1 4-9 2v-36z" fill="#E6E9EE"/>
<path transform="translate(853,939)" d="m0 0h1v6l-7 16-1 6-3 4-1 5 1 4-2 4-2 1-2 4-8 4-2-1 1-5 2-1 3-6h2l1-4 1-7 6-8-2-1 1-3 4-1 1-7 2-2 1-5z" fill="#A17B6F"/>
<path transform="translate(699,988)" d="m0 0 9 3 4 4-1 4-5 4-1 3h-2l3 10-4-1-5-2-2-2-2-7 1-5 4-4v-6z" fill="#D0D0D8"/>
<path transform="translate(643,854)" d="m0 0h2v13l-2-1-1 3v18l2 9v10h2l4 9-1 2-3-5-3-3-4-10-2-4-1-8v-18l4-10z" fill="#CEBCBA"/>
<path transform="translate(704,493)" d="m0 0 2 1 1 4h-2l1 3-2 2-3 6-1 5-3 1 4 3v2l-7-2h-5v2l-16 4-4-2 1-3 7-3 6-2 2-1 2 1-1-3h4v2h2l-1-4h4l-1-3 4-2 3-2-2-3 2-1-1-2h3z" fill="#B28276"/>
<path transform="translate(616,376)" d="m0 0 3 2v4l1 3-1 2 4 2-8 1h5l-3 3h-2v2l-10 7-6 4-1 2h4l-1 4-3-1-5 3-5 6-3 3 1-5 4-8 1 3 2-3-1-3 8-9 4-5 7-6 2-6 3-1 1-2-2-1zm-6 14-1 3h3l-1-3z" fill="#90605C"/>
<path transform="translate(674,985)" d="m0 0h3l5 1 1 1v8l-3 5h-2l-1 3-4 1-6-5v-2h-2v2l-5-2v-2h2l2-4 6-4z" fill="#D0D0D8"/>
<path transform="translate(682,502)" d="m0 0h2l2 4 2-2 5 5h-2l1 4h-2l-1-2-2 1v2l-4 1-15 5-1-5h-3l-2 2-1-1-2 3v-2l-6 2-3-2 7-4 2-1 9-1h4v-2l5-1v-2h2v-2z" fill="#9E776C"/>
<path transform="translate(695,540)" d="m0 0 6 1 2 1 1-2 3 2h3l7 3 1 2 2-2 5 7h-2l-1 2-2-1-1 3-2-1v2h-2l-1-1v2h3l-1 3-5-4-6 3v-2l-7-1 2-3 3 1v2h2l1-4h2l-4-5v-2h-3l-1-2-4-2z" fill="#905A58"/>
<path transform="translate(626,515)" d="m0 0 4 4-2 2v2 4h-2l-1 2h-3l-2 5-4 3h-2l-2 7h-3l-2 5-1 2 2 1-2 6-6 1 1-4 2-6 1-7v-3l3-1 4-4 2-6 5-2 2-1 2-5 2-3h2z" fill="#9F756E"/>
<path transform="translate(600,638)" d="m0 0 2 2-5 2 1 3-3 5-1 5h-2v6l-4 1-1 7 3 2h-5l-5-4v-7l5-12 3-5 9-3z" fill="#9D7067"/>
<path transform="translate(579,480)" d="m0 0 5 1 2 10 1 1v5l-2-3v6l1 2-2 1 3 8-6 1 2 1-2 6-2 1 1 5 2 4-2 2-1-4h-2l-1-5-1-6 1-2h-2l-2-5 1-3h4v-2l4 1 1 1v-3h-3l1-7h2l-2-8 1-3h-2z" fill="#905B58"/>
<path transform="translate(804,541)" d="m0 0h4l1 2 8-2 9 3-3 2-4 1v-2l-2-1 2 6h-4v-3l-3 1 2 2-1 2h-2v-2l-6 2-6 3-8-1-1-4 5-3v-3z" fill="#2C112A"/>
<path transform="translate(600,640)" d="m0 0 3 1 1 3v15l-2 2-9 3-1 5h2v2l-7-1-1-4 2-5h3l1-6h2v-5l3-5v-3z" fill="#8F5957"/>
<path transform="translate(822,538)" d="m0 0 4 1 2 1 1-2 9 6-1 2-3-1v3l5 2-1 3-6-4v2h-3l-1 4h-14l-1-5-2-2 4-1v3h4l-2-3v-3l3 1h3l-2-2-4-2 7-2z" fill="#8A5655"/>
<path transform="translate(712,1382)" d="m0 0h1l1 7 2-1-1-2h2v-2h-3v-2l5 1 1 4v28l-2 5h-4l-2-8 1-8 2 2h3l-2-3-3-1v-3h-2v-16z" fill="#FBFBFC"/>
<path transform="translate(641,869)" d="m0 0h2l2 17 4 9v6l4 9 3 6 1 4 3 10-3-1-8-14-3-6v-3h-2l-2-14-1-5z" fill="#9B6D65"/>
<path transform="translate(834,532)" d="m0 0h2l3 4v2l7 2 2 3 4-1v-2l6-1 1 3 2 1 1 5h2l2 4h-4l1 3-4-2-8-3 2-1-1-2-2 3h-2l-2-6-2 2-6-3-2-2-6-1-1-5 5 1h2z" fill="#996B63"/>
<path transform="translate(418,994)" d="m0 0 3 1 1 3-2 1-1-2-5 8-5 2-1 2-2-1-2 4h-5l-1 2h-1l-2 2-4 1-1 3-4 1h-2l-6 1 5-5 11-7z" fill="#FBFCFC"/>
<path transform="translate(624,632)" d="m0 0h5l2 6h2v5l2 2v2l3 2v6l1 5-2 3h2l1-3 3 2-1 5 2 5h-7l1-4h-2l-1-9-2-2v-3h-2l-1-4-4-6-4-8z" fill="#D9C7C3"/>
<path transform="translate(581,601)" d="m0 0 3 3 3 5 3 2v2l3 1 3 4 3-8 3 1 1 7-3 5h-2l3 9-2 4-3-1 1-5-5-9-4 8-2 3v-8l1-9-5-6v-2l-4-1z" fill="#D9CAC8"/>
<path transform="translate(827,588)" d="m0 0 6 1 2 1v2h2l-1 4-2 3 8-2 3 1-1-4 1-4 8 2v2h3v2h-5l-1 3-5 2-2-1v2h-8l-4 2-3-1 1-1-9-1 4-2 2-5z" fill="#9F786D"/>
<path transform="translate(649,558)" d="m0 0h12l-2 1v2l3-2 7 1v2l3 1 1 4-2 1-8-2v2h6l2 1v2h-14l-5-1 2-2 3 1-1-2h-7l-2-3 2-1-2-2z" fill="#9F796D"/>
<path transform="translate(780,728)" d="m0 0 9 2 8 3h14l4 4-2 4h-2v-3l-5 2v-3l-15 1-11-2-14-1v-3l6-1 7 1h1z" fill="#A27B6F"/>
<path transform="translate(802,580)" d="m0 0 4 1 1 2h16l-1 2-14 1-8 4 1 4h-3v4l3 1v2l-8 2-1-2h2v-3l-7 1 2-6 1-5h4l2-5 5-2z" fill="#976761"/>
<path transform="translate(813,552)" d="m0 0 2 1v1h16l1 2 7 2v-2l-2-2h8l3 2v2l3 1 2 4-2 1h-12v-2l-8-1-4-2-7-2-10 1-3-1 1-3z" fill="#A17B70"/>
<path transform="translate(726,677)" d="m0 0h11l5 2 3 3-1 4 3 4-4 1-7-2-1 2-5-5-7-3-1-4z" fill="#905B58"/>
<path transform="translate(725,849)" d="m0 0 3 1v5l6 8 8-1 1-1h9l4-4 12-2 4-1-1 3-12 3-2 5-6 2h-7l-9 2-6-5-4-11z" fill="#B38377"/>
<path transform="translate(765,739)" d="m0 0 5 1-5 5h-6l-1-2h-3l-4-1-4 1v2l-5-1 1-2-7-1-1 4-4-1 1-2h-3v2l-5 1-3-2v-2l-10 3-9 2-7-3 2-1 4 2v-2l3-1 13-1h44l4 1z" fill="#95655F"/>
<path transform="translate(403,1330)" d="m0 0h1v11l-1 15-2 58h-3v-29h-1v-8l2-2 3-40z" fill="#C6A196"/>
<path transform="translate(548,979)" d="m0 0h5l1 4h2l5 8v6l-3 3-8-1-2-10-1-7z" fill="#D0D0D8"/>
<path transform="translate(758,789)" d="m0 0h7l4 2v10h-2l-1 4h-6l-5-4v-5h-2v-2z" fill="#D3B9B1"/>
<path transform="translate(868,918)" d="m0 0 2 3-1 5h-2l2 4-2 9-6 17-6 13-4 7-2 1-1-4 8-16 3-10 5-12z" fill="#CCC1C4"/>
<path transform="translate(775,424)" d="m0 0h5l-1 3 4 1-3 2-16 4-5-1v4l-8 2-6 2 1-5 3-2 9-2 1-2h3l1-2-3-1 10-2 4 2z" fill="#8D5857"/>
<path transform="translate(703,748)" d="m0 0h5v2h5l1 2 2 3-2 3v3h-3-4l-1 4-4-2v-4l-3-2-1-3z" fill="#D9C7C3"/>
<path transform="translate(626,520)" d="m0 0h6v3l4 2 3 2v-2l-4-2 1-3 4 3v3l3 1v4h-2l1 2 3 1 3 4-1 4 3 1-3 1-3-1-1 3h-3v-2l-2-1v-2l4-4 1-2-3-1v-2l-4-2-2-2-3 1-1-2-2 2-1-4z" fill="#C19D93"/>
<path transform="translate(687,474)" d="m0 0h4v2l5 2 1 3h2v7l-3 3-2 1 2 4-3 1-4-6h2l-4-6z" fill="#9A6C64"/>
<path transform="translate(860,926)" d="m0 0h1l-1 8-3 8-4 12-2 5-1 12-3 6-4 2-2-4 2-5 3-7 3-9 4-9 2-7 3-9z" fill="#996C64"/>
<path transform="translate(835,528)" d="m0 0h4l6 5 3 4h4l1 3-1 2h-3l-1 2-2-4-7-2-3-4v-2h-2l3 4-1 2-5-2-3 4-8-2 1-2h2l1-2 8-2 1-2 2 1z" fill="#9E776C"/>
<path transform="translate(647,501)" d="m0 0 6 1-1 6h-2l-1 3h-3l-1 2-1 3v1l5 2-2 1v2h-2l-1 2-8-7v-6l4-2 1-3 4-2z" fill="#9A6C64"/>
<path transform="translate(662,537)" d="m0 0h2l1 3-1 1 2 1v2l2 1h-2l-1 2v-3h-2v2h-3v2h-3v2l4 2-3 2-7-1h-4l-1-5h6v-3l-4 1 4-4 3-2h6z" fill="#825051"/>
<path transform="translate(739,721)" d="m0 0h7l7 3v1h-5v4l-3-1 2 8h6v1l-9 1-6-1-3-5 2-4z" fill="#A0796D"/>
<path transform="translate(908,582)" d="m0 0 2 4 3 1v2l-5 2-7 6h-2l-2-2h-2l1 7h-3l2 30-2-2-2-10v-23h2l-1-4 2-1 2-4 4 5 6-7z" fill="#976962"/>
<path transform="translate(670,583)" d="m0 0h10l2 2 9 1v1h-15l-6 2-4 1v2l-9 4-2 3 2 1h-7l2-4 4-1 1-3 3-2-7 2 1-3 12-5z" fill="#8E5C5A"/>
<path transform="translate(729,643)" d="m0 0 4 5 2 11 2 4-5 5-6-2 1-7-2-5v-5h2l1-5z" fill="#D3BAB2"/>
<path transform="translate(632,596)" d="m0 0h2l1 6-4 10-2 1v4h-2v2l2 1-1 2-3 2v3h2l2 4-6 1-2-8h-2l1-5 2-1 1-2v-2-2h3v-2l4-4 1-6z" fill="#D9C8C5"/>
<path transform="translate(675,781)" d="m0 0 5 1v2l3-1v3h-2l-1 6-1 2h3l-1 4h-2l-2 4-2 1v-3h-2v-6l-3-1 2-7v-2h2z" fill="#D9C7C3"/>
<path transform="translate(811,537)" d="m0 0h7l6 2-1 2h-8l-1 2-6 1v-3l-13 4v3l-4 2h-3-3v-5h3l1-3 11-3h7z" fill="#996B64"/>
<path transform="translate(569,465)" d="m0 0 1 2-1 4v11l-4 3-1-3-1 4 2 4-1 3h-2l1 5-2 1 1 4v8l-2-3-1-5-2-1h2v-12l1-11 4-4v4l1-9v-3z" fill="#280E29"/>
<path transform="translate(862,354)" d="m0 0 6 1 2 1-1 4h-6l1 3h-4v-3l-4-1v2h-2v-2l-3 1-1 2 12 3v2h-4v-2h-9l-1 2-1-3-6-2 1-3 3 1v-2l-2-1 6-2v2l1-1h13l-3 2 4-1 1-1z" fill="#996C65"/>
<path transform="translate(445,1336)" d="m0 0 3 2v21h-2v-2l-2-1 1-4-6 1-1-9v-5z" fill="#C6A196"/>
<path transform="translate(858,935)" d="m0 0 4 1-1 10-3 8-5 12-2 4h-2l2-15 3-7z" fill="#865454"/>
<path transform="translate(604,1381)" d="m0 0 4 2v10l-1 4 1 4-5 3-2 3h-3l-1 3-2-1 4-8 1-3 1-9 2-5z" fill="#D0D0D8"/>
<path transform="translate(789,550)" d="m0 0 2 4h9l6-4h5v2l2 1-5 2v3l-5 1-8 1-7 1v-4l-2-1v-2h2z" fill="#9E776C"/>
<path transform="translate(886,552)" d="m0 0 2 1-1 5 2 1-1 5 1 7-1 9 2 25 2-1v11h-2l-2-6-3-16-1-13 1-1 1-14-1-11z" fill="#966962"/>
<path transform="translate(674,582)" d="m0 0h18l6 2v2l5 2 9 7 1 4-7-4-12-6-3-1v-2h-9l-8-3z" fill="#9B7168"/>
<path transform="translate(780,682)" d="m0 0 2 1v2h3l2 2 3-4 2 1-3 6-5 3-6 1-5-1v-3l-2-1 2-3h-10v-1h16z" fill="#B08175"/>
<path transform="translate(624,583)" d="m0 0 4 1 2 4-1 4 2 2h-2l2 8-2 4-1-3h-2v2l-3 1v-3l-2-1 1-2 1-14z" fill="#E7EAEF"/>
<path transform="translate(586,443)" d="m0 0 4 1-3 3-5 3h-9v2h2l-1 3-2 3v1l10-7v3h-2v3l-5 2-3 7h-2v-2h-2l1-12 2-2-3-1 1-2 8-1h2l1-3z" fill="#925F5B"/>
<path transform="translate(867,887)" d="m0 0 4 4 3-3-3 22-6 21-2 2 1-7 2-10 1-16 1-3z" fill="#280E29"/>
<path transform="translate(683,460)" d="m0 0 2 4 8 1 1 1 2-2v2h2v2l4 1-7 1-2 2 1 5-3-1v-2h-4l-1 6-2-1 1-9h-2l-1-7z" fill="#8A5655"/>
<path transform="translate(708,673)" d="m0 0h1l2 10 2 5 14 3 2-1 3 2-5 2-10-1-8-3-5-4v-7z" fill="#835152"/>
<path transform="translate(763,678)" d="m0 0h10l7 3-1 5-18-1-4-1 2-4z" fill="#976861"/>
<path transform="translate(898,656)" d="m0 0 1 4 11-2v2l-7 2 1 3-3 5-7 3h-2l1-10 4-5z" fill="#B48579"/>
<path transform="translate(693,737)" d="m0 0 8 1h16l5-1h11l7 2v1l-39 2v2l-6-2-3-3z" fill="#280E29"/>
<path transform="translate(673,873)" d="m0 0 1 2 2 1 1 2h3l-3 4 3-1 2 2-3 2 4 2 1 4-2 1 1 3-5 3-2 3h-2v-2h2l-2-14 1-3v-3l-4-1z" fill="#C6A297"/>
<path transform="translate(601,396)" d="m0 0h7l-2 5-7 5-1 2h4l-1 4-3-1-5 3-5 6-3 3 1-5 4-8 1 3 2-3-1-3 8-9z" fill="#9B6D67"/>
<path transform="translate(719,725)" d="m0 0 5 1-3 2-5 1v2l-10 3-3 2h-15l-2 5-2-2-1-8 1-2 9 1 4 3 8-1 9-4 5-1z" fill="#9E786D"/>
<path transform="translate(801,590)" d="m0 0h2l5 10 10 1-4 2h-2v2h-12l-4-1 1-3h4v-2l-4-1 1-4h3z" fill="#986861"/>
<path transform="translate(603,587)" d="m0 0 2 3v1h2l1 8h2l-2 7-3 5h-1l-1-5-3-1v-11z" fill="#865857"/>
<path transform="translate(637,866)" d="m0 0h1l1 20 1 7h2l2 8v5h2l4 9-1 2-3-5-3-3-4-10-2-4-1-8v-18z" fill="#D0D0D8"/>
<path transform="translate(682,502)" d="m0 0h2l2 5-4 4-4-1v2l-11 2-3 1-2 2-1-1-2 3v-2l-6 2-3-2 7-4 2-1 9-1h4v-2l5-1v-2h2v-2z" fill="#9A6C64"/>
<path transform="translate(600,442)" d="m0 0 2 2-1 3 5-5-1 13 3 1-2 6-2-4h-1l-1 6h-2l-1-5-2-1v2h-2l3-11 3 1v-2h-2z" fill="#8D5C5A"/>
<path transform="translate(606,577)" d="m0 0 1 4-1 6 2 1v4l2 1-1 5-1-2-2-1 1-4h-2l-1 3-1-3v-2l-2 5-1 7-3 3v-3h-2l1-4 2-5-2-1 3-5 4-1-1-4z" fill="#915F5C"/>
<path transform="translate(611,534)" d="m0 0 2 3-1 7h-3l-2 5-1 2 2 1-2 6-6 1 1-4 2-6 1-7v-3l3-1z" fill="#A17B70"/>
<path transform="translate(866,888)" d="m0 0 2 2 1 9-1 1-1 19-3 12 2-3-1 7-2 4-1-3-3-1 6-23z" fill="#925E5C"/>
<path transform="translate(578,607)" d="m0 0 4 1h-3l-1 7-2 11v25h2l-1 9h-2l-2-29v-9l2-10z" fill="#CAA9A0"/>
<path transform="translate(578,673)" d="m0 0h6l2 2 2-1v5h-2l2 8h2l1 4-6-1-3-5-2-1z" fill="#D6C2BD"/>
<path transform="translate(805,446)" d="m0 0 5 1 1 3h6v3l1 7-3 1-5-5-1-3-4 1-1-3-6 1 2-4h5z" fill="#9E776C"/>
<path transform="translate(707,734)" d="m0 0h5l-1 3 8-1h18l4 2-2 1-6-1h-11l-5 1h-16l-8-1v3l2 1h-3l-1-4h-2v-2l6-1h8z" fill="#905A58"/>
<path transform="translate(783,437)" d="m0 0 9 2 4-1 6 4-2 4h5v2l-9 2v-2h2v-2l-4-1-1-2h-4-7l-3-3z" fill="#9A6C64"/>
<path transform="translate(867,845)" d="m0 0 4 1v2l5 2 4 4 1 5v13h-1l-3-12-2-1-1-4-8-3 2-1-3-4z" fill="#AA877D"/>
<path transform="translate(594,678)" d="m0 0 2 3 1 7 3-1v2l-2 2 2 7-1 5-1 3 1 2-5-2v-2h2l-2-4h-4l-1-5 5-1z" fill="#D6C6C4"/>
<path transform="translate(710,593)" d="m0 0 5 2 1 4 4 1 1 5-2 6-1-2-14 1-4-2v-2l15-1-2-6z" fill="#C6A196"/>
<path transform="translate(598,636)" d="m0 0h3l-2 4-6 3h-5l-2 5-5 12-1 7h-1v-10l3-9 4-8 7-2z" fill="#C6A196"/>
<path transform="translate(599,610)" d="m0 0 3 1 1 7-3 5h-2l3 9-2 4-3-1 1-5-4-8v-5l3 1z" fill="#D7C9C8"/>
<path transform="translate(722,847)" d="m0 0h9v7l4 4 2-1v2l6-1 3 3-4 2-8 1-7-9-1-6h-4z" fill="#9F7A6E"/>
<path transform="translate(593,642)" d="m0 0h1v6l-5 3-1 4-3 5-4 7h-1v-7l5-12 3-5z" fill="#B38377"/>
<path transform="translate(665,533)" d="m0 0 4 1 2 2 8 1v2h8v2l-5 1-15-1v-2h-3v-2l-3 3h-3l1-4z" fill="#9A6C64"/>
<path transform="translate(591,620)" d="m0 0 4 4 2 5-1 5-3 2-6-1-1-3z" fill="#C39D92"/>
<path transform="translate(555,482)" d="m0 0h1v12l3 6 1 6 2 3 2-1-2 10-2 1-4-11-3-18 1-6z" fill="#865757"/>
<path transform="translate(644,358)" d="m0 0 2 1-1 2h-2l1 2 3-2v5l-2 1 3 2-2 1 1 5-4-1v-3l-3-1 2-4h-6v2l-6-1 1-3 9-3zm6 5 2 1-2 4h-2l1-4z" fill="#6E4950"/>
<path transform="translate(824,581)" d="m0 0 11 2 2 2 5 2 3 2v9h-8l-1 2-2-1 2-4 2-2v3l3-1 2 1-4-6-5-3-10-3z" fill="#9C7369"/>
<path transform="translate(612,541)" d="m0 0h1l-1 9-3 1v3h2v20l-3-2-2-1 3-4h-2v-7h-2l2-8-1-3 3-5h3z" fill="#A57F74"/>
<path transform="translate(729,752)" d="m0 0 17 4-4 4-2 1h-10l-2-3z" fill="#9D756A"/>
<path transform="translate(579,480)" d="m0 0 5 1 2 10 1 1v5l-2-3v6l1 2-4 4v-3h-3l1-7h2l-2-8 1-3h-2z" fill="#865656"/>
<path transform="translate(708,666)" d="m0 0 3 1-1 8-2-1-2 4-1 1v7l5 5-6-1-3-5v-7l1-4h2l1-4z" fill="#9F756B"/>
<path transform="translate(819,453)" d="m0 0 10 4 2 1 1 4 6 2v2l2 2-2 2-2-1-1 2-6-6-1-3-3-1v-2h-2l-1-2-3 1-2 1-1-4z" fill="#9A6C64"/>
<path transform="translate(920,394)" d="m0 0 3 2 2 6 5 10v7l-1-2-3 1-4-2-1-5-1-3h3l3 7-1-6-2-3v-3l-4-1v-2l-4-2-1-2 5 2z" fill="#966A65"/>
<path transform="translate(569,467)" d="m0 0 5 2-3 9 4-1v2l3 1-2 1-2-1-1 6-2-3-3 3-6 2 1-6h3l1 1 1-3v-9z" fill="#8E5957"/>
<path transform="translate(711,546)" d="m0 0 4 4 1 6h-2v2h3l-1 3-5-4-6 3v-2l-7-1 2-3 3 1v2h2l1-4 4-3z" fill="#704349"/>
<path transform="translate(834,532)" d="m0 0h2l3 4v2l7 2 3 4-1 3-3-3-1 2-6-3-2-2-6-1-1-5 5 1h2z" fill="#96655F"/>
<path transform="translate(411,1440)" d="m0 0h1v10l-3 29-2-1-4 5 2-11 5-25z" fill="#E8EBF0"/>
<path transform="translate(650,353)" d="m0 0h3v4h-3l1 3 4-2 1-2 4-2 3-1v2h-2l-2 4h-2v2l-6 2-3 5-4-1 2-4-4 1 1-3h2l1-5z" fill="#9C6E68"/>
<path transform="translate(784,318)" d="m0 0 10 4 8 7 1 4h3l-2-5 5 4-1 4-4 2-3-4-3-1-3-7-6-1v-2l-5-2z" fill="#966963"/>
<path transform="translate(584,599)" d="m0 0 6 1 5 4 2 1-1 6-5-1-5-4v-2h-3l-1-4z" fill="#A97E73"/>
<path transform="translate(262,1308)" d="m0 0 1 3-2 9-5 15-3 13h-3l1-7 10-32z" fill="#FDFDFD"/>
<path transform="translate(726,677)" d="m0 0h11l4 4h-3v2h-2v2l-7-1-6-3z" fill="#280E29"/>
<path transform="translate(569,497)" d="m0 0 3 3 3 2h-2l-2 8-6-2v-3l-2-1 1 4-2 1-1-7 1-2h3v-2z" fill="#8B5857"/>
<path transform="translate(791,841)" d="m0 0h6l-8 8h-3v2l-11 4-3-2 10-5 4-3-3-2z" fill="#B38377"/>
<path transform="translate(915,595)" d="m0 0h2l2 6 1 8v9h-2l-1-9-2-5h-6l2-4z" fill="#B28276"/>
<path transform="translate(812,547)" d="m0 0h3v3l9-3 5 1-1 7h-14l-1-5-2-2z" fill="#7A4A4E"/>
<path transform="translate(639,546)" d="m0 0 3 2v4h3l-4 4 2 3-3 3-2-1 2-2-6 2-4 2 2-4h3v-2l-2-2 3-1-2-2z" fill="#C4A095"/>
<path transform="translate(713,1404)" d="m0 0 2 2 4-1 1 2v8l-2 5h-4l-2-8z" fill="#FDFDFD"/>
<path transform="translate(716,667)" d="m0 0h8l-2 3-3 1-1 2h-2l1 4-3 3-3 2-2-1 1-9 4-1z" fill="#D2BCB7"/>
<path transform="translate(602,618)" d="m0 0 3 1v4l-2 1v6h2v10l-2 4-2-5v-3l-2-1 1-3-2-9 3-3z" fill="#C9A79D"/>
<path transform="translate(725,645)" d="m0 0 1 4-3 7-8 8-1 2h-2l3-11 1-2 3-1 1-3 4-2z" fill="#986962"/>
<path transform="translate(845,590)" d="m0 0 8 2v2h3v2h-5l-1 3-5 2-2-1v2h-6v-4l5-1 3 1-1-4z" fill="#A1786D"/>
<path transform="translate(621,372)" d="m0 0h2v2l4-2v3l3 3-4 1-2 2-2-2 2 5-1 3h-4v-4l-2-2v-4-2z" fill="#70444A"/>
<path transform="translate(770,731)" d="m0 0 9 1 5 2 23 2v4l-1-3-15 1-11-2-14-1v-3z" fill="#996B63"/>
<path transform="translate(643,888)" d="m0 0 2 4 3 10 1 5 6 16h-2l-7-14v-3h-2z" fill="#784C50"/>
<path transform="translate(559,475)" d="m0 0 2 2-1 17-1 6-3-3-1-6v-12z" fill="#7E4F52"/>
<path transform="translate(673,480)" d="m0 0 1 2h2l2 8-1 4-2 2-5 1-1-2h-2v-5l4-2 3-3z" fill="#996B63"/>
<path transform="translate(853,939)" d="m0 0h1v6l-7 16-4 2v-3h-2l1-3 4-1 1-7 2-2 1-5z" fill="#A77E72"/>
<path transform="translate(603,666)" d="m0 0h2l2 6v12l-1-4-4-1-4-4 1-4h2z" fill="#915C59"/>
<path transform="translate(861,950)" d="m0 0 1 3-8 19-5 5-1-4 8-16 1-3h3z" fill="#D0C9CD"/>
<path transform="translate(642,528)" d="m0 0 1 3h-2l1 2 3 1 3 4-1 4 3 1-3 1-3-1-1 3h-3v-2l-2-1v-2l4-4 1-2-3-1v-2l-3-1v-1h5z" fill="#C5A095"/>
<path transform="translate(765,739)" d="m0 0 5 1-5 5h-6l-1-2h-3l-4-1-4 1v2l-5-1 1-2-3-2h21l4 1z" fill="#9B6D65"/>
<path transform="translate(581,641)" d="m0 0h1l-2 16v10l3 5v2l-5-1-2-6v-7l4-17z" fill="#D8D3D6"/>
<path transform="translate(382,1133)" d="m0 0h3l1 2v7l-3 8-2-3-3-6 1-4z" fill="#E8EBF0"/>
<path transform="translate(710,750)" d="m0 0h3l1 2 2 3-2 3v3h-3-4l-1 4-4-2 2-5 6-3 1-2-2-1z" fill="#D2B7AF"/>
<path transform="translate(832,549)" d="m0 0 5 2h2 4l1 4-4 1-1 2-7-1-1-3-3-1 1-2h-6v-1h7l2 1z" fill="#996C64"/>
<path transform="translate(689,496)" d="m0 0 3 1h9l2 2-3 1 2 3-4 2-2 2-4-1z" fill="#9D746A"/>
<path transform="translate(581,684)" d="m0 0 3 3 2 5 6 1-2 3v4l5-1 1 5-3 1-5-5-5-8-2-5z" fill="#E8EBF0"/>
<path transform="translate(899,627)" d="m0 0 1 2 4 1 1 7 1 3-8-1-2-6z" fill="#B38377"/>
<path transform="translate(797,591)" d="m0 0 4 1v2h-3v4l3 1v2l-8 2-1-2h2v-3l-7 1 2-4 7-3z" fill="#71444B"/>
<path transform="translate(796,581)" d="m0 0h5l-1 2h-4l-2 5-4 1v5h-2l-1 4-2-2-4-1v-3l5-3 2-2 4-3h2v-2z" fill="#A37B6F"/>
<path transform="translate(609,574)" d="m0 0 3 3 2 5 3-1 1 2h-2l-1 3h-2l-1 3-1 11-3-2 1-5-1-3 2-4-2-6z" fill="#CFB7B2"/>
<path transform="translate(865,363)" d="m0 0 9 3 11 6 2 1v2l4 1 1 3-5-2-8-2 2-1v-2l-4-1-5-3-8-2z" fill="#885D5C"/>
<path transform="translate(879,536)" d="m0 0 5 3 1 1 1 11-1-2-3 1v-2h2l-1-2-4 2-1-5-2-1 2-5z" fill="#915C59"/>
<path transform="translate(577,615)" d="m0 0 1 4v17l1 7 1 3-1 5h-3l-1-25z" fill="#B5877B"/>
<path transform="translate(607,606)" d="m0 0 1 3v10l-2 9-4-1 1-4h2l-2-6v-5z" fill="#C7A49A"/>
<path transform="translate(567,450)" d="m0 0h5l-2 4-3 11-3 1-3-1 3-5 1-3-2-1 2-4z" fill="#2F132C"/>
<path transform="translate(620,635)" d="m0 0 3 1 3 3 2 6 2 4-3 1-4-1-1-6-3-2z" fill="#D2D3DA"/>
<path transform="translate(660,347)" d="m0 0 3 1 1 4-6 5-2 1-3 2h-2v-2l-2-1 3-2 4-3 1-3z" fill="#523141"/>
<path transform="translate(742,692)" d="m0 0h6l-4 2-8 3-5 3h-2l-1 3-2-2v-3l-6-1-3-1 1-2 7 2 5-1 9-2z" fill="#B38377"/>
<path transform="translate(704,493)" d="m0 0 2 1 1 4h-2l1 3-2 2-1 2-3 5-6-3 5-4 2-1-2-3 2-1-1-2h3z" fill="#B28377"/>
<path transform="translate(687,493)" d="m0 0 3 3 2 10 3 1 1 3-5-2-3-3-2 2-3-5v-2l3-1z" fill="#875354"/>
<path transform="translate(660,589)" d="m0 0 2 1-5 3-3 3h-2l-1 5-4-1v-6l2-3 5-1h3z" fill="#AA8278"/>
<path transform="translate(884,380)" d="m0 0 7 3 3 3v3h5l5 5 2 4-5-4-5-1-1-3-4-2v-3l-4 1-5-5z" fill="#936460"/>
<path transform="translate(836,357)" d="m0 0 3 1-3 1 1 3-14 7h-2l1-4 2-2h3l1-3 6-1z" fill="#A27871"/>
<path transform="translate(588,1008)" d="m0 0 4 3v8l-1 2h-2v6l-3 2 1-18z" fill="#FDFDFD"/>
<path transform="translate(226,1422)" d="m0 0 3 1-3 12-2 3-2-1-1 6-2 2 2-10 4-12z" fill="#FDFDFD"/>
<path transform="translate(674,582)" d="m0 0h18l2 1v3l2 1-5 1v-2h-9l-8-3z" fill="#A27B70"/>
<path transform="translate(669,549)" d="m0 0 9 1 5 3-1 2-10 2v-2h-6l4-1z" fill="#905A58"/>
<path transform="translate(802,529)" d="m0 0 4 2 1 2 1-2h2l1 5-8 1-2-1v2h-2l-2-6 2-1 2 1z" fill="#D2B7AF"/>
<path transform="translate(754,656)" d="m0 0 8 1v3l2 2-2 3h-6v-3l-4-1 1-4z" fill="#D6BFB9"/>
<path transform="translate(636,513)" d="m0 0h6l2 3v1l5 2-2 1v2h-2l-1 2-8-7z" fill="#9B6F67"/>
<path transform="translate(763,678)" d="m0 0h10l4 2v2l-3 1h-10l-3-2v-2z" fill="#280E29"/>
<path transform="translate(604,645)" d="m0 0h1v6h2l1 4-1 1 1 6-1 5v5l-4-8z" fill="#D1B9B3"/>
<path transform="translate(778,844)" d="m0 0h10l-5 4-8 5-5 1 1-2 6-3 2-2h-15v-1z" fill="#A17B6F"/>
<path transform="translate(802,606)" d="m0 0h6v5l5 4v2l-10-1z" fill="#B28276"/>
<path transform="translate(713,570)" d="m0 0h4v2h2l3 4 1 6-5 2-6-1 3-2 1-3h2l-1-3-4-4z" fill="#B28276"/>
<path transform="translate(863,905)" d="m0 0 2 2-2 7-1 12-3 3-3 9-2 1 1-7h2l1-7 4-16z" fill="#AC7F73"/>
<path transform="translate(666,587)" d="m0 0h3l-1 3h-2v2l-9 4-2 3 2 1h-7l2-4 4-1 1-3 4-3v-1z" fill="#966761"/>
<path transform="translate(695,508)" d="m0 0 4 1 2 4-4 2 4 3v2l-5-2v-2l-5-2v-5zm3 2 1 2z" fill="#AB7F74"/>
<path transform="translate(694,469)" d="m0 0h8l2 2v3l-6 1v2h-2v-2h-3l-1-5z" fill="#9A6B64"/>
<path transform="translate(621,378)" d="m0 0h4 3 6l-1 2h-2l-1 4h-2v2l-4 2-3-9z" fill="#94615D"/>
<path transform="translate(700,681)" d="m0 0 2 2 1 5 4 2 14 3 2 3-16-2-4-2-3-5z" fill="#A87D71"/>
<path transform="translate(696,592)" d="m0 0 6 2 5 4 1 3-1 2h5v1h-8l-7-1v-2l6-1-2-4h-2v-2h-2l-1 4z" fill="#996C65"/>
<path transform="translate(825,578)" d="m0 0 9 1 13 5 4 4-2 1-15-7-9-2z" fill="#9F736A"/>
<path transform="translate(603,559)" d="m0 0 4 2h-2l1 8-1 8h-1l-1-5-3-2 3-3h-2v2h-2l3-9z" fill="#8E5C5A"/>
<path transform="translate(590,680)" d="m0 0 3 3-1 5h3l-1 6-8-2 1-2 4 1-1-4h-2v-6z" fill="#D9DAE0"/>
<path transform="translate(626,515)" d="m0 0 4 4-2 2v2 4l-5-1-4 1 3-7 2-3h2z" fill="#996D65"/>
<path transform="translate(756,307)" d="m0 0 9 1v2l5 1 7 3 1-2 5 2v1l-6 1-8-1-2-4h-7z" fill="#A17870"/>
<path transform="translate(617,707)" d="m0 0 7 1v2l2 1-3 1 2 1v2h-2l-1 2-2-3-2-1v-2l-4 1 1-4z" fill="#D4CCCE"/>
<path transform="translate(796,638)" d="m0 0h7l2 1 1 4-2 5-3-1-1-3-2 1-2-4z" fill="#D3B9B1"/>
<path transform="translate(644,543)" d="m0 0h6v2h2v3l-5 1v2l-6 2v-5l-1-2 3-1z" fill="#9D756B"/>
<path transform="translate(832,530)" d="m0 0 2 1 3 5-1 2-5-2-3 4-8-2 1-2h2l1-2 8-2z" fill="#A07A6F"/>
<path transform="translate(704,741)" d="m0 0h15l-4 2-10 3-9-2-1-2 6 2v-2z" fill="#94625D"/>
<path transform="translate(694,600)" d="m0 0 2 1-1 2-1 1h-6v3l-5 1 1-2-7 1 1-3-9 1-1-2 8-1 3 1h8z" fill="#95635E"/>
<path transform="translate(664,511)" d="m0 0h7l-1 2-6 2-2 2-1-1-2 3v-2l-6 2-3-2 7-4 2-1z" fill="#9B6D65"/>
<path transform="translate(320,1180)" d="m0 0 4 1v12l-1-2-5-1v-7z" fill="#FDFDFD"/>
<path transform="translate(900,663)" d="m0 0 2 1-3 7-7 2v-6z" fill="#9D6E66"/>
<path transform="translate(640,660)" d="m0 0 3 2-1 5 2 5h-7l1-4h-2v-5h3z" fill="#DAC8C4"/>
<path transform="translate(862,354)" d="m0 0 6 1 2 1-1 4h-6l1 3h-4v-3l-4-1v2h-2v-2l-2-1 7-1 4 1 2-2z" fill="#B58F84"/>
<path transform="translate(641,869)" d="m0 0h2l2 17v6h-3l-1-5z" fill="#94625D"/>
<path transform="translate(695,540)" d="m0 0 6 1 2 1 1-2 3 2 1 8-4-2v-2h-3l-1-2-4-2z" fill="#7C4B4F"/>
<path transform="translate(678,537)" d="m0 0 1 2h8v2l-5 1-15-1-1-3h8z" fill="#905A58"/>
<path transform="translate(756,684)" d="m0 0h5v3l-4 3h-2v2h-6l3-1v-2l-4-1 2-1 2 1v-2z" fill="#B38377"/>
<path transform="translate(721,680)" d="m0 0 1 4 4 1-1 4-10-1-2-2h3v-2l3-1z" fill="#A77D71"/>
<path transform="translate(607,544)" d="m0 0h2l-2 5-1 2 2 1-2 6-6 1 1-4 3-7z" fill="#915C59"/>
<path transform="translate(563,522)" d="m0 0 2 1v2l6-1 4 12-3 1-6-9v-2l-3-1z" fill="#905F5C"/>
<path transform="translate(646,361)" d="m0 0 1 4-2 2 3 2-2 1 1 5-4-1v-3l-3-1 2-6zm4 2 2 1-2 4h-2l1-4z" fill="#563340"/>
<path transform="translate(641,893)" d="m0 0h1l2 8v5h2l4 9-1 2-3-5-3-3-3-6z" fill="#D1C7C9"/>
<path transform="translate(739,721)" d="m0 0h7l7 3v1h-5v4h-2v-4h-8z" fill="#A0766C"/>
<path transform="translate(886,552)" d="m0 0 2 1-1 5 2 1-1 5 1 7-1 9-2 1v-16l-1-11z" fill="#905B59"/>
<path transform="translate(555,482)" d="m0 0h1v12l3 6v2h-2v6h-1l-3-18 1-6z" fill="#A98378"/>
<path transform="translate(631,1023)" d="m0 0h2l1 5-7 3-6 4-3 1v-2l4-3h2v-2h2v-2h2v-2z" fill="#D0D0D8"/>
<path transform="translate(708,666)" d="m0 0 3 1-1 8-2-1-2 4-2 1v-8z" fill="#9A6F66"/>
<path transform="translate(669,595)" d="m0 0h3l3 4v4l-8 1v-2l2-1-3-1-1-3z" fill="#AB8379"/>
<path transform="translate(801,590)" d="m0 0h2l3 7v3l-8-1-1-3 1-2h3z" fill="#9C7369"/>
<path transform="translate(594,475)" d="m0 0h1l2 9-2 8-2-1-2-6 1-7z" fill="#875656"/>
<path transform="translate(582,452)" d="m0 0v3h-2v3l-5 2-3 7h-2v-2h-2l1-6 2-1v4l3-5 7-4z" fill="#986963"/>
<path transform="translate(870,357)" d="m0 0 5 1 12 7-4 2-10-4 4-2-6-2z" fill="#976D69"/>
<path transform="translate(675,617)" d="m0 0 6 1-3 3 4 1-12 1-2-1 1-3z" fill="#AF8175"/>
<path transform="translate(788,543)" d="m0 0 7 1 1 3-5 3h-3-3v-5h3z" fill="#814F51"/>
<path transform="translate(668,848)" d="m0 0h3v3l5 2 3 5-5 1v-3h-3l-2-1z" fill="#D2B8B0"/>
<path transform="translate(785,720)" d="m0 0h7l1 8-4-1v-2h-5z" fill="#D3B9B1"/>
<path transform="translate(672,591)" d="m0 0h1l1 7-2-1v-2l-6 3v2l6 1v1l-13-1 4-2 2-4z" fill="#966761"/>
<path transform="translate(698,489)" d="m0 0 4 1v2h-2v2h3v2h-3v2h-6v-2h2l-1-4z" fill="#A2796E"/>
<path transform="translate(626,367)" d="m0 0h4v4l2 4-6-2-3 1v-2l-5 3 2-4h2l1-3z" fill="#9F726B"/>
<path transform="translate(654,605)" d="m0 0 8 3v2l-5 3-2-1v-2l-3 3-2-6z" fill="#D3B9B2"/>
<path transform="translate(908,582)" d="m0 0 2 4 3 1v2l-5 2-7 6h-2v-2l4-1 2-6z" fill="#A67C71"/>
<path transform="translate(623,570)" d="m0 0 2 2 1 4-1 4h-3l1 4-5-3-4-1 2-1 1-2v2h3v-2l1-1v-2h2v-2l-2-1z" fill="#DAC8C4"/>
<path transform="translate(684,552)" d="m0 0h10l4 4-9 1-6-2z" fill="#8D5857"/>
<path transform="translate(562,455)" d="m0 0 5 2-3 5-4 9h-2l1-7z" fill="#A1746D"/>
<path transform="translate(860,926)" d="m0 0h1l-1 8-3 8-2 5h-2l1-8 3-5 2-7z" fill="#9B6D65"/>
<path transform="translate(703,748)" d="m0 0h5l-5 5h2l-1 4-2 2-3-2-1-3z" fill="#D3B9B1"/>
<path transform="translate(585,600)" d="m0 0h5l5 4 2 1v2l-6 1v-2l-4-2z" fill="#915E5B"/>
<path transform="translate(813,552)" d="m0 0 2 1v1h5v3l-10 1-3-1 1-3z" fill="#9E766B"/>
<path transform="translate(718,542)" d="m0 0h3v2l4 1 3 4v2l2 1-2 2-6-5-2-5h-2z" fill="#9F7A6E"/>
<path transform="translate(688,482)" d="m0 0 5 4v5l3 3v2l-3 1-4-6h2l-4-6z" fill="#8F5A58"/>
<path transform="translate(730,308)" d="m0 0h9v1l-13 3-3 2h2v2l-5 1v-2l-4-2 9-3z" fill="#A1766E"/>
<path transform="translate(686,741)" d="m0 0h2l3 7h5v7l-6-1-3-9z" fill="#B18276"/>
<path transform="translate(638,569)" d="m0 0h2v2l4 1-5 1 1 5-3 1h-4l1-5 2-1 2 1z" fill="#D8C7C4"/>
<path transform="translate(610,388)" d="m0 0 2 1-1 2-2 2 3 1-3 5-3-1 1-1-5-1 5-5z" fill="#A37971"/>
<path transform="translate(715,689)" d="m0 0 9 1h4l4 2-5 2-10-1z" fill="#905A58"/>
<path transform="translate(840,590)" d="m0 0h4l1 6v2h-8l-1 2-2-1 2-4 2-2v3l3-1 2 1z" fill="#905A58"/>
<path transform="translate(584,564)" d="m0 0h1l1 5 2 2v2l2 8 1 6-4-5-1-8-2-2-1-6z" fill="#A1756E"/>
<path transform="translate(639,575)" d="m0 0 3 1-2 8 1 3h-2l-1 2-2-6v-3l-3-1 6-1z" fill="#D3B9B1"/>
<path transform="translate(789,550)" d="m0 0 2 4h8l-5 5-4-2v-2l-4 1v-2h2z" fill="#8B5655"/>
<path transform="translate(589,481)" d="m0 0 2 4-2 3 1 3 2 1-1 11-2-3v-8l-3-4v-5h3z" fill="#915E5A"/>
<path transform="translate(715,1358)" d="m0 0 5 2v-2l4 1-2 3h-2l-2 5h-2l-2-5z" fill="#FDFDFD"/>
<path transform="translate(786,900)" d="m0 0 3 1v3h-2l-1 5-4 1 2-4-5 1 5-6z" fill="#D3B9B1"/>
<path transform="translate(607,694)" d="m0 0 2 1v9h-4l-1-2v-6z" fill="#B38377"/>
<path transform="translate(711,657)" d="m0 0 4 1-3 11-4-3z" fill="#A47A6F"/>
<path transform="translate(783,545)" d="m0 0h2v5l6-2v2l-2 1-1 3h-2l1 3h-4v-8z" fill="#976861"/>
<path transform="translate(721,1286)" d="m0 0h1l1 5v10l1 4h-3l-1-6-1-4z" fill="#FCFCFC"/>
<path transform="translate(770,731)" d="m0 0 9 1 1 3h-14v-3z" fill="#9D766B"/>
<path transform="translate(630,651)" d="m0 0 2 1-1 2h2l3 5-1 5-5-1 2-4h-2l-1-5z" fill="#D0CFD6"/>
<path transform="translate(584,604)" d="m0 0h2l5 5 5 2 1-3-1 7-4-1-7-6z" fill="#C6A196"/>
<path transform="translate(697,594)" d="m0 0 5 2 2 4-7 2-2-1v-3h2z" fill="#C39E93"/>
<path transform="translate(607,575)" d="m0 0h1v5l2 1-1 2 2 1-1 4-2 2-2-2-1-3 1-9z" fill="#9E786C"/>
<path transform="translate(811,356)" d="m0 0 2 4h2v7h3l-1 3-3 1-1-5h-2l-1-7z" fill="#A87E75"/>
<path transform="translate(620,626)" d="m0 0h2l2 9-6-1-1-4z" fill="#D1D0D8"/>
<path transform="translate(915,595)" d="m0 0h2l2 6-2 4-3-3h-3l2-5z" fill="#A1736A"/>
<path transform="translate(828,589)" d="m0 0 3 1v2l3 1v3l-6 3-2-1z" fill="#C6A196"/>
<path transform="translate(720,551)" d="m0 0 2 2 4-1-2 5-4 1-1 3-1-2-4-1-1-4 2 1v2h2v-2h2z" fill="#9A6B63"/>
<path transform="translate(865,900)" d="m0 0h1v12l-3 11h-1v-9z" fill="#9C7369"/>
<path transform="translate(770,543)" d="m0 0h2v3l2-3 2 1-1 8 1 3-2 3-2-4-2-7z" fill="#9F7A6E"/>
<path transform="translate(811,537)" d="m0 0h7l6 2-1 2h-10l-3-1z" fill="#9B7268"/>
<path transform="translate(849,359)" d="m0 0 2 1-1 2 12 3v2h-4v-2h-9l-1 2-1-5z" fill="#A37970"/>
<path transform="translate(688,735)" d="m0 0h6v1h-5v2h2l1 4-1 3-3-1v-3h-2l1-5z" fill="#9B6E65"/>
<path transform="translate(621,492)" d="m0 0 2 3v11h-2l-3-10v-2h3z" fill="#95655F"/>
<path transform="translate(627,373)" d="m0 0 12 3-1 3-3 1-8-4z" fill="#875756"/>
<path transform="translate(660,360)" d="m0 0h2l-1 4-6 2-4 1v-3l1-3 4 1h-2v2z" fill="#996A64"/>
<path transform="translate(793,1012)" d="m0 0 2 1-17 17 2-5 6-7h2v-2z" fill="#D8CDCD"/>
<path transform="translate(580,676)" d="m0 0 4 2 4 7v3l-4-2-4-7z" fill="#C29B90"/>
<path transform="translate(581,666)" d="m0 0 1 3 12 2-2 2-4-1-2 4-6-6z" fill="#C5A095"/>
<path transform="translate(620,621)" d="m0 0 4 3 1 3h2l2 4-6 1-2-8h-2z" fill="#DAC8C4"/>
<path transform="translate(664,553)" d="m0 0h6l4 2v3h-8l-4-2 2-1z" fill="#9B6E65"/>
<path transform="translate(763,1148)" d="m0 0h2l2 4-2 3-3-1v2l-5 2-1-2 5-4z" fill="#FDFDFD"/>
<path transform="translate(389,1013)" d="m0 0m-1 1m-1 1 3 4-4 2h-2l-6 1 5-5z" fill="#FDFDFD"/>
<path transform="translate(434,1006)" d="m0 0 3 1 2 11h-4l-2-11z" fill="#D0D0D8"/>
<path transform="translate(684,729)" d="m0 0 5 2-3 10-2-2-1-8z" fill="#B08276"/>
<path transform="translate(599,592)" d="m0 0 3 1-1 1-1 7-3 3v-3h-2l1-4z" fill="#95645F"/>
<path transform="translate(756,586)" d="m0 0 3 4-1 3-4 1v-2l-3 1v-3h2v-3z" fill="#D3B9B1"/>
<path transform="translate(613,530)" d="m0 0h2v2l5-1v3l-4 3h-4v-6z" fill="#BC988F"/>
<path transform="translate(689,496)" d="m0 0 9 3-1 2-3 1-2 4z" fill="#986A63"/>
<path transform="translate(937,486)" d="m0 0 2 3-1 12-2 3-2-1 1-6z" fill="#A3766F"/>
<path transform="translate(736,1479)" d="m0 0 10 1-2 1 1 3h-8l-2-3z" fill="#FAFAFB"/>
<path transform="translate(808,738)" d="m0 0h3v3l4-1-1 4h-4-2v-3l-3-1z" fill="#B38377"/>
<path transform="translate(596,676)" d="m0 0h2v3l6 2 3 3-1 2-5-1v-3h-3z" fill="#B38377"/>
<path transform="translate(796,581)" d="m0 0h5l-1 2h-4l-2 5-5 2-2 1 1-4 4-3h2v-2z" fill="#AE8175"/>
<path transform="translate(637,531)" d="m0 0 3 1 3 3-2 5-2 1-4-8h2z" fill="#D3BDB8"/>
<path transform="translate(920,408)" d="m0 0h3l3 7 3-3 1 4-1 3v-2l-3 1-4-2-1-5z" fill="#A37970"/>
<path transform="translate(881,371)" d="m0 0 4 1 2 1v2l4 1 1 3-5-2-8-2 2-1z" fill="#654149"/>
<path transform="translate(845,977)" d="m0 0v3 1l3-2-2 5-4 2-4 1 1-3h2l1-4z" fill="#D1C8CB"/>
<path transform="translate(862,939)" d="m0 0h1v11h-2l-1 4h-2l1-7z" fill="#D3BCB7"/>
<path transform="translate(766,740)" d="m0 0 5 1h11l-4 3h-10l-2 2-1-2z" fill="#B38377"/>
<path transform="translate(794,740)" d="m0 0h11v2l-10 3z" fill="#A0756B"/>
<path transform="translate(745,726)" d="m0 0 1 3h2v-2h2l1 6-5 1-2-3z" fill="#BA8E82"/>
<path transform="translate(586,619)" d="m0 0h1v9l-2 7h-3z" fill="#D1BFBD"/>
<path transform="translate(602,618)" d="m0 0 3 1v4l-3 2-1 5-2-2-1-5 3-3z" fill="#D2BCB7"/>
<path transform="translate(609,560)" d="m0 0 2 2v12l-3-2-2-1 3-4h-2v-6z" fill="#C6A196"/>
<path transform="translate(635,520)" d="m0 0 5 3v3l3 1-1 3h-5l-1-4 3 1v-2l-4-2z" fill="#8E5F5C"/>
<path transform="translate(747,848)" d="m0 0h9l1 2 5 1v1l-10 1-2-3z" fill="#905A58"/>
<path transform="translate(632,596)" d="m0 0h2l1 6-3 7-2-3 1-6z" fill="#D5CBCC"/>
<path transform="translate(702,588)" d="m0 0 6 4 5 5-1 2-3-3-7-3z" fill="#8F5C59"/>
<path transform="translate(586,443)" d="m0 0 4 1-3 3-5 3h-2l2-6z" fill="#9A6D67"/>
<path transform="translate(880,856)" d="m0 0 3 2v13l-2 1z" fill="#D2D2D9"/>
<path transform="translate(598,687)" d="m0 0h2v2l-2 2 2 7-1 5-2-3-1-7 1-5z" fill="#D3B9B1"/>
<path transform="translate(899,627)" d="m0 0 1 2h3l-2 6-5-1z" fill="#9D6F66"/>
<path transform="translate(599,610)" d="m0 0 3 1 1 7-3 3-2-5v-5z" fill="#E8EBF0"/>
<path transform="translate(827,588)" d="m0 0 6 1-4 1-2 8 2 1v2h-9l4-2 2-5z" fill="#966761"/>
<path transform="translate(635,586)" d="m0 0 1 3h2l-2 9-2 1-1-6z" fill="#D3B9B2"/>
<path transform="translate(806,550)" d="m0 0h5v2l2 1-11 2h-3z" fill="#905B58"/>
<path transform="translate(829,535)" d="m0 0 5 1 4 4-1 2-7-2z" fill="#986962"/>
<path transform="translate(755,1321)" d="m0 0 2 1-2 5-4 2h-4l-1 2 1-4 6-4z" fill="#FCFCFC"/>
<path transform="translate(715,670)" d="m0 0h2v7l-3 3-1-2 1-2-3 1 1-4 3-1z" fill="#DBD3D3"/>
<path transform="translate(577,615)" d="m0 0 1 4v15l-2 2-1-10z" fill="#B38377"/>
<path transform="translate(576,507)" d="m0 0h3l1 4v7h-2l-2-8h-2v-2z" fill="#280E29"/>
<path transform="translate(590,410)" d="m0 0 1 3 4-2-6 8-4 4 1-5z" fill="#AD837A"/>
<path transform="translate(616,376)" d="m0 0 3 2v4l-2 4-2 1v-2h-2l1-4 3-3-2-1z" fill="#B1897F"/>
<path transform="translate(742,309)" d="m0 0h14l1 3-10 1v-2l-5-1z" fill="#A1766E"/>
<path transform="translate(742,1308)" d="m0 0h5v4l-2 2v2l-4-2z" fill="#FDFDFD"/>
<path transform="translate(624,1009)" d="m0 0 4 1-2 5-4 1-1-2z" fill="#FDFDFD"/>
<path transform="translate(761,657)" d="m0 0 1 3 2 2-2 3h-6v-2h4l-1-2-2 1 1-4z" fill="#D3B9B1"/>
<path transform="translate(785,598)" d="m0 0h9v3l-2 1h-7z" fill="#996B66"/>
<path transform="translate(613,535)" d="m0 0 1 2 3-1 1 4-4 6h-1l-1-6z" fill="#D0D0D8"/>
<path transform="translate(583,504)" d="m0 0h2l2 7-6 1-1 2v-7h2z" fill="#95655F"/>
<path transform="translate(579,480)" d="m0 0 5 1v8h-2l-1-3-2-1z" fill="#875555"/>
<path transform="translate(920,394)" d="m0 0 3 2v5l-1-2-3 3v-2l-4-2-1-2 5 2z" fill="#A67E74"/>
<path transform="translate(650,353)" d="m0 0h3v4h-3l1 3h-5l-1-3z" fill="#9F746D"/>
<path transform="translate(220,1481)" d="m0 0h1l1 9-1 2-3-1v-6z" fill="#FDFDFD"/>
<path transform="translate(760,1132)" d="m0 0 4 1 1 6-1 5h2l-1 2-2 1-2-10-2-2z" fill="#FDFDFD"/>
<path transform="translate(588,1008)" d="m0 0 4 3-1 4-2 2h-2z" fill="#F6F7F8"/>
<path transform="translate(563,962)" d="m0 0 2 1-2 9-5 1 2-5h2z" fill="#D0D0D8"/>
<path transform="translate(708,699)" d="m0 0 4 1-1 5h-4l-1-4z" fill="#AD7F73"/>
<path transform="translate(581,680)" d="m0 0 3 4 2 3h4l1 4-6-1-4-6z" fill="#D5C3C0"/>
<path transform="translate(637,556)" d="m0 0 6 2-3 4-2-1 2-2-6 2-4 2 2-4z" fill="#BA958A"/>
<path transform="translate(612,541)" d="m0 0h1l-1 9-5-1 2-5h3z" fill="#C39E93"/>
<path transform="translate(589,484)" d="m0 0 4 4 1 4-2 7h-1v-7l-3-5z" fill="#280E29"/>
<path transform="translate(601,396)" d="m0 0h7l-2 5h-3l-4 1 1-4z" fill="#71484E"/>
<path transform="translate(621,378)" d="m0 0h4 3 6l-4 1v2l-5 2-3-1z" fill="#A37E72"/>
<path transform="translate(778,324)" d="m0 0 5 2 6 3 1 3 2 1v2l-5-2-1-2-8-5z" fill="#996A64"/>
<path transform="translate(742,1491)" d="m0 0h2l1 4 3 3-1 2-3-1-4-5z" fill="#FDFDFD"/>
<path transform="translate(866,888)" d="m0 0 2 2 1 9-3 4z" fill="#95635E"/>
<path transform="translate(869,858)" d="m0 0h1l1 10-2 1-2-3-1-7z" fill="#9B6D65"/>
<path transform="translate(780,689)" d="m0 0 6 1v2l-4 2-5-1 1-3z" fill="#A2776D"/>
<path transform="translate(623,643)" d="m0 0 5 2 2 4-3 1-4-1-1-5z" fill="#D0D0D8"/>
<path transform="translate(578,607)" d="m0 0 4 1h-3l-1 7-2 1-2 4 1-8z" fill="#CBACA3"/>
<path transform="translate(933,503)" d="m0 0 2 2-1 6-4 9-1-3z" fill="#A37870"/>
<path transform="translate(581,486)" d="m0 0 1 3h3l2 3v5l-2-3h-3l-2-6z" fill="#976A63"/>
<path transform="translate(577,436)" d="m0 0 1 4-1 3-5 3-3 2 2-4z" fill="#6F464E"/>
<path transform="translate(640,365)" d="m0 0 4 1h-2l-1 4-5 1v-3-2z" fill="#A67D73"/>
<path transform="translate(402,1483)" d="m0 0 1 3-4 12-3 2 1-5z" fill="#E8EBF0"/>
<path transform="translate(861,950)" d="m0 0 1 3-3 7-4 2 2-8h3z" fill="#D2C7C9"/>
<path transform="translate(721,741)" d="m0 0h10l-2 1v2l-5 1-3-2z" fill="#AF8378"/>
<path transform="translate(607,606)" d="m0 0 1 3-1 9-3-1-1-5z" fill="#A07A6F"/>
<path transform="translate(610,535)" d="m0 0v3l-2 4h-2l-1 4-1-4v-3l3-1z" fill="#8D5957"/>
<path transform="translate(623,520)" d="m0 0h2l1 4 2 1v2l-5-1-4 1 3-6z" fill="#895A59"/>
<path transform="translate(850,356)" d="m0 0h13v1l-14 2v2h-2v-3z" fill="#8C605D"/>
<path transform="translate(871,904)" d="m0 0 3 2-2 9h-2l-1 3 1-8z" fill="#C2A6A0"/>
<path transform="translate(729,752)" d="m0 0 2 1-1 3 5 1-1 4h-4l-2-3z" fill="#A07A6E"/>
<path transform="translate(719,725)" d="m0 0 5 1-3 2-5 1v2h-5l5-4h3z" fill="#A37C70"/>
<path transform="translate(907,669)" d="m0 0 1 4-7 4h-2v-2h2v-2z" fill="#D3B9B1"/>
<path transform="translate(891,618)" d="m0 0 3 1 1 13-2-2z" fill="#A47C70"/>
<path transform="translate(891,602)" d="m0 0h2l1 15-3 1z" fill="#9D7369"/>
<path transform="translate(849,591)" d="m0 0 4 2 3 1v2h-5l-1 3-4-1h3z" fill="#B38377"/>
<path transform="translate(845,590)" d="m0 0 4 2v6l-4-1-1-3zm1 4 1 3z" fill="#9F766B"/>
<path transform="translate(674,582)" d="m0 0h12v3l-4 1-8-3z" fill="#9C7067"/>
<path transform="translate(788,555)" d="m0 0h2l3 3 4-1-4 4h-5v-4z" fill="#9C7369"/>
<path transform="translate(703,536)" d="m0 0 6 2 2 5h-3l-4-2z" fill="#9D766B"/>
<path transform="translate(603,587)" d="m0 0 2 3-3 9h-2v-5z" fill="#2C102A"/>
<path transform="translate(610,587)" d="m0 0h2l-1 13-3-2 1-5-1-3z" fill="#C6A197"/>
<path transform="translate(679,554)" d="m0 0 7 1 2 2-5 1-5-1-1-2z" fill="#9B6D65"/>
<path transform="translate(612,547)" d="m0 0 2 2v5l-3 3v-3h-2v-3l2-1z" fill="#CFCCD2"/>
<path transform="translate(644,527)" d="m0 0h5l2 4-2 1h-2l-3 1-1-5z" fill="#935F5C"/>
<path transform="translate(631,383)" d="m0 0 6 1-1 2 4 2-3 1-6-1v-3z" fill="#8F5E5B"/>
<path transform="translate(650,363)" d="m0 0 2 1-2 4h-2l1-4zm-6 5 4 1-2 1 1 5-4-1z" fill="#381930"/>
<path transform="translate(632,369)" d="m0 0 9 2-4 3-5-1-3-3z" fill="#815052"/>
<path transform="translate(804,328)" d="m0 0 5 4-1 4-4 2-1-4 3-1z" fill="#A88178"/>
<path transform="translate(783,315)" d="m0 0 6 1 6 4h-3l-9-4z" fill="#9C726B"/>
<path transform="translate(931,415)" d="m0 0 2 1 1 8-4-3z" fill="#AE887D"/>
<path transform="translate(901,380)" d="m0 0 5 5v2h-2l-3-5z" fill="#B79286"/>
<path transform="translate(814,347)" d="m0 0h1v8l-2 1z" fill="#BA958A"/>
<path transform="translate(799,324)" d="m0 0 4 2 1 2-4-2z" fill="#996E65"/>
<path transform="translate(740,307)" d="m0 0h6v1h-6z" fill="#B99488"/>
<path transform="translate(809,336)" d="m0 0 2 1-1 2z" fill="#A1736D"/>
<path transform="translate(906,387)" d="m0 0h2l-1 2z" fill="#B99488"/>
<path transform="translate(803,330)" d="m0 0" fill="#B99488"/>
<path transform="translate(920,405)" d="m0 0 2 1z" fill="#C6A196"/>
<path transform="translate(869,360)" d="m0 0 2 1z" fill="#C6A196"/>
<path transform="translate(796,322)" d="m0 0 2 1z" fill="#9F7A6E"/>
<path transform="translate(930,406)" d="m0 0" fill="#C6A196"/>
<path transform="translate(900,383)" d="m0 0" fill="#C6A196"/>
<path transform="translate(899,382)" d="m0 0" fill="#C6A196"/>
<path transform="translate(898,381)" d="m0 0" fill="#C6A196"/>
<path transform="translate(897,380)" d="m0 0" fill="#C6A196"/>
<path transform="translate(852,361)" d="m0 0" fill="#C6A196"/>
<path transform="translate(814,356)" d="m0 0" fill="#C6A196"/>
<path transform="translate(798,323)" d="m0 0" fill="#9F7A6E"/>
<path transform="translate(795,321)" d="m0 0" fill="#C6A196"/>
</svg>
