<?xml version="1.0" encoding="UTF-8"?>
<svg version="1.1" viewBox="0 0 2048 768" width="1280" height="1280" xmlns="http://www.w3.org/2000/svg">
<path transform="translate(736,51)" d="m0 0h26l76 1-2 12-25 108-41 178-5 20-8 16-8 11-7 7-10 7-12 6-14 4-8 1h-110l-1-2 10-43 24-103 39-169 7-16 9-12 9-9 14-9 13-5 8-2z" fill="#F07628"/>
<path transform="translate(529,108)" d="m0 0h101l8 1-2 12-45 194-8 16-8 10-8 8-11 7-11 5-11 3-6 1h-114l1-9 39-169 6-24 5-12 6-10 10-12 10-8 10-6 14-5z" fill="#0267B4"/>
<path transform="translate(902,108)" d="m0 0h101l9 1-4 19-41 178-6 16-7 11-9 10-10 9-15 8-14 4-7 1h-112l4-19 17-73 24-104 5-14 7-13 9-11 9-8 13-8 14-5z" fill="#0FAE54"/>
<path transform="translate(1449,560)" d="m0 0h65v28h-14v25h40v-25h-14l-1-1v-27h65v28h-14l1 82h12l1 1v27l-64 1-1-1v-27l1-1h13l1-30h-40v30h14v28h-65v-27l1-1h11l2 1v-83h-13l-1-1z" fill="#F07629"/>
<path transform="translate(1599,560)" d="m0 0h50l10 16 17 28 12 20 5 8v-44h-14v-28h63v28h-13v110h-31l-6-9-17-28-16-26-10-16-1 51h14l1 1v27l-63 1-1-1v-27l1-1h12l1-82h-14z" fill="#F07628"/>
<path transform="translate(680,557)" d="m0 0h17l16 3 12 5 13 9 8 8 7 10 6 12 3 12v26l-3 12-7 14-7 9-9 9-11 7-12 5-14 3h-22l-16-4-16-8-12-11-8-10-7-14-3-12-1-7v-11l3-16 5-13 9-13 9-9 14-9 14-5zm1 34-10 4-8 6-6 9-3 7-1 5v15l4 12 7 9 8 6 8 3h17l10-4 10-9 6-12 1-5v-16l-4-12-6-8-7-6-11-4z" fill="#F07628"/>
<path transform="translate(1160,560)" d="m0 0h124v50l-23 1-3-4-6-16v-3h-42v22h27l1 1v30h-28v29h42l2-10 5-16h25v54l-123 1-1-1v-28h13l1-82h-14z" fill="#F07628"/>
<path transform="translate(1888,557)" d="m0 0h16l13 3 11 6 5 4 1-10h33v53l-35 1-7-11-8-7-11-4h-16l-11 4-5 4h-2l-2 4-5 8-3 10v14l3 10 6 10 9 7 8 3h17l11-4 10-9 4-6h39l-3 10-8 14-8 10-10 8-16 8-17 4h-21l-14-3-12-5-11-7-11-11-9-14-5-14-2-13v-10l3-16 5-12 6-10 11-12 10-7 12-6 12-3z" fill="#F07628"/>
<path transform="translate(1363,557)" d="m0 0h15l14 3 11 6 5 4 1-10h32v53l-34 1-6-9-6-7-10-5-4-1h-17l-12 5-7 6-5 8-3 10v16l3 10 6 9 7 6 10 4h17l11-4 9-8 5-7h38l-1 6-8 16-7 9-8 8-13 8-14 5-10 2h-22l-16-4-16-8-12-11-7-8-8-16-3-11-1-6v-15l3-15 5-12 7-11 12-12 13-8 14-5z" fill="#F07628"/>
<path transform="translate(186,560)" d="m0 0h81l11 3 8 4 10 9 6 12 2 11v9l-2 11-6 12-4 5-9 6-10 4-12 2h-25v22h14v28h-65v-27l1-1h13l1-82h-14l-1-1v-24zm50 28v33h18l7-3 5-5 1-3v-11l-4-6-6-4-4-1z" fill="#F07628"/>
<path transform="translate(488,560)" d="m0 0h81l12 3 10 6 5 5 6 8 4 13v18l-4 12-6 9-7 6-10 5-15 3h-26v22h14l1 1v27h-65v-27l5-1h9v-82h-14zm50 28v33l2 1 17-1 8-4 4-6 1-9-3-8-5-4-6-2z" fill="#F07628"/>
<path transform="translate(671,172)" d="m0 0h93l8 2 6 4 4 5 2 4v14l-6 25-7 14-8 7-11 4-70 1-6 25-5 9-6 7-10 6-8 2h-5l1-9 17-74 10-43z" fill="#FEFEFE"/>
<path transform="translate(893,560)" d="m0 0h61v28l-10 1 12 19 6 10 2 1 2-5 15-25-9-1-1-1v-27h60v28l-11 1-8 12-17 25-14 21-1 23h14l1 1v27l-64 1-1-1v-28h13v-22l-10-16-29-43-11-1z" fill="#F07628"/>
<path transform="translate(56,560)" d="m0 0h122v50h-25l-7-19v-3h-39v22h25v31h-25v29h17l1 1v27h-69v-27l1-1h12l1-82h-13l-1-1z" fill="#F07628"/>
<path transform="translate(1035,560)" d="m0 0h117v49h-22l-4-10-3-9v-3h-11l1 83h10l3 1v27h-65v-27l1-1h14v-83h-11l-3 11-4 11h-23z" fill="#F07628"/>
<path transform="translate(310,560)" d="m0 0h117v49h-22l-4-10-4-11-10-1 1 83h12l1 1v27l-63 1-1-1v-28h13v-82l-10-1-3 11-4 11h-23z" fill="#F07628"/>
<path transform="translate(772,560)" d="m0 0h64v27l-1 1h-13v82l35-1 8-25 9-1 15 1v54h-118l1-28h12l1-3 1-79h-14l-1-2v-23z" fill="#F07628"/>
<path transform="translate(511,172)" d="m0 0h95l-1 6-5 9-4 5-11 7-7 2h-70l-4 19-1 2h74l1 2-4 9-6 8-8 6-10 4-53 1-4 15-4 14-6 8-9 8-7 3-11 1 1-9 22-95 5-10 8-8 12-6z" fill="#FEFEFE"/>
<path transform="translate(1748,560)" d="m0 0h65v28h-14v82h14v28l-64 1-1-1v-27l1-1h13v-82h-13l-1-1z" fill="#F07729"/>
<path transform="translate(852,172)" d="m0 0h99l9 3 7 6 3 6v13l-1 1h-47l-4 19-13 56-5 10-9 9-10 5-4 1h-7l1-8 16-70 5-22h-26l-8-4-5-6-2-5v-13z" fill="#FEFEFE"/>
<path transform="translate(1181,193)" d="m0 0h15l1 1v102l-4 3-14 3h-14l-9-2-10-6-7-9-3-8-1-6v-14l3-12 6-9 7-6 6-3 5-1h15l4 1zm-16 45-7 4-4 5-3 8-1 10 2 12 6 9 6 3 8 1 8-1 1-1v-49l-2-1z" fill="#0368B4"/>
<path transform="translate(1077,201)" d="m0 0h50l1 1v12l-1 1h-36v28h34v13l-33 1-1 30h37v13h-52v-98z" fill="#0669B5"/>
<path transform="translate(1500,225)" d="m0 0h13l11 4 7 6 5 9 3 10v19l-3 10-6 10-8 6-10 3h-11l-9-3-6-4-6-7-4-8-2-9v-14l3-13 6-9 8-7zm3 12-7 4-5 8-1 4v20l3 9 6 6 3 1h10l7-5 4-9 1-6v-11l-3-12-6-7-5-2z" fill="#0569B5"/>
<path transform="translate(1355,225)" d="m0 0h16l10 3 8 7 3 8v54l-7 3-11 2h-16l-12-3-6-4-5-6-1-3v-15l5-8 8-5 16-4 14-2-1-9-4-4-6-2h-8l-10 2-6 2-4-9 1-3zm21 38-16 2-8 4-3 3-1 3v7l4 6 9 3h9l7-2 1-1v-24z" fill="#0468B4"/>
<path transform="translate(1568,225)" d="m0 0h18l10 3 6 4 4 5 2 5v58h-15l-1-52-2-7-10-3-13 1-2 1-1 60h-15v-70l12-4z" fill="#0267B4"/>
<path transform="translate(1253,226)" d="m0 0 14 1v70l-8 3-11 2h-16l-10-3-6-4-4-5-3-9v-54h15l1 50 2 7 6 4h15l3-1 1-60z" fill="#0267B4"/>
<path transform="translate(1422,205)" d="m0 0h3v22h15v8l-1 3h-14l1 45 2 3 9 1 3 1v10l-3 3h-14l-8-4-4-6-1-4-1-26v-23h-9v-12l9 1v-17l10-4z" fill="#0A6CB6"/>
<path transform="translate(1303,225)" d="m0 0h14l11 4 1 2-5 10-6-2h-12l-6 4-4 6-2 7v14l3 9 3 5 8 4h8l8-2 5 10-3 3-10 3h-12l-11-4-8-7-5-9-3-11v-15l2-9 5-10 7-7 8-4z" fill="#0568B4"/>
<path transform="translate(693,201)" d="m0 0h61l-1 9-3 12-26 1-35-1 1-9z" fill="#F07628"/>
<path transform="translate(1449,226)" d="m0 0h14l1 1v73h-15z" fill="#0267B4"/>
<path transform="translate(998,321)" d="m0 0h14l8 5 5 6 2 6v10l-4 8-5 5-5 3-4 1h-8l-10-4-6-7-2-5v-13l5-9 7-5zm3 4-6 3-5 6-2 6 1 9 4 7 7 4h10l6-4 4-5 1-3v-11l-4-7-5-4-4-1z" fill="#0A6BB6"/>
<path transform="translate(996,330)" d="m0 0h14l4 2 1 2v7l-3 3h-3l6 9v2h-5l-7-10-2-1v11h-5zm5 4v6l5 1 4-2-1-5z" fill="#0669B5"/>
<path transform="translate(1454,196)" d="m0 0 7 1 4 4v7l-4 5-6 1-6-3-2-3v-6l4-5z" fill="#0769B5"/>
</svg>
